<?xml version="1.0" encoding="UTF-8"?>
<svg width="200px" height="200px" viewBox="0 0 200 200" version="1.1" xmlns="http://www.w3.org/2000/svg" xmlns:xlink="http://www.w3.org/1999/xlink">
    <defs>
        <linearGradient x1="-10.8858224%" y1="90.368305%" x2="113.350144%" y2="7.4824839%" id="linearGradient-1">
            <stop stop-color="#A365E1" offset="0%"></stop>
            <stop stop-color="#6A35BF" offset="100%"></stop>
        </linearGradient>
    </defs>
    <g id="One" stroke="none" stroke-width="1" fill="none" fill-rule="evenodd">
        <text id="Flipt" font-family="Helvetica" font-size="65" font-weight="normal" fill="#6A35BF">
            <tspan x="39.1022949" y="185">Flipt</tspan>
        </text>
        <g id="Logo-/-Icon-/-Rounded" transform="translate(50.000000, 20.000000)">
            <g id="Group">
                <rect id="Rectangle" fill="url(#linearGradient-1)" fill-rule="nonzero" x="0" y="0" width="100" height="100" rx="20"></rect>
                <path d="M33.6325528,49.4496309 C32.4932205,55.0458853 31.2696116,61.2696739 29.9623548,68.1188555 C29.1822761,72.2059643 27.9430699,78.8487571 26.2459163,88.0411353 L14.4453529,85.8624424 C16.1465639,76.6480877 17.38943,69.9856758 18.1751314,65.8691082 C22.0939045,45.3372672 25.2786823,30.3185574 27.7458345,20.7572318 C29.5769018,13.6610219 34.8159069,9.73781204 42.4021128,8.47157652 C47.2421257,7.663716 51.1658811,7.77388172 62.2161121,8.59525598 C67.4025688,8.98077028 70.1270643,9.14380033 73.2047538,9.20962639 C76.0958382,9.27146132 79.0463975,8.61909046 84.3742937,6.91912202 L88.0219502,18.351296 C81.4908257,20.4351777 77.5549062,21.3054125 72.9481547,21.2068826 C69.5963936,21.1351947 66.7155893,20.9628113 61.3265945,20.5622422 C44.611334,19.3197808 40.3251996,20.0351919 39.3652467,23.7554415 C37.9958147,29.0626068 36.3794623,36.1939661 34.5192744,45.1390137 L69.2802508,37.1004874 L70.181473,40.99764 L33.6325528,49.4496309 Z" id="Combined-Shape" fill="#FFFFFF" fill-rule="nonzero"></path>
            </g>
        </g>
    </g>
</svg>
