<svg id="Layer_1" data-name="Layer 1" xmlns="http://www.w3.org/2000/svg" xmlns:xlink="http://www.w3.org/1999/xlink" viewBox="0 0 1447.75 396.85"><defs><style>.cls-1{fill:#0b0c0e;}.cls-2{fill:url(#linear-gradient);}</style><linearGradient id="linear-gradient" x1="56.69" y1="198.43" x2="431.69" y2="198.43" gradientUnits="userSpaceOnUse"><stop offset="0" stop-color="#14b8ec"/><stop offset="0" stop-color="#1bb8ec"/><stop offset="1" stop-color="#4860aa"/></linearGradient></defs><path class="cls-1" d="M489.46,170.67c0-44.57,28.17-71.36,78.2-71.36,49.5,0,77.93,26.79,77.93,71.36v59.61c0,44.57-28.43,71.37-77.93,71.37-50,0-78.2-26.8-78.2-71.37Zm122-.27c0-25.16-15.58-39.1-43.75-39.1S523.91,145,523.91,170.4v60.15c0,25.43,15.59,39.1,43.75,39.1s43.75-13.94,43.75-39.1Z"/><path class="cls-1" d="M670.22,207.86c0-35.82,21.06-56.06,62.89-56.06,30.9,0,51.13,14.22,58.52,35.82,2.18,6.84.54,9.85-6,12.31l-12,3.83c-6.56,2.46-9.57.82-12-5.74-4.65-12.31-14.77-18.32-29.81-18.32-20,0-29.8,9-29.8,26.79V247c0,17.23,10.39,26.8,29.8,26.8,15,0,25.16-6.29,29.81-18.87,2.46-6.56,5.47-7.66,12-5.47l12.3,3.56q9.43,3.69,5.75,12.3c-9.57,24.33-29.81,36.37-61,36.37-40.47,0-60.43-20.24-60.43-56.06Z"/><path class="cls-1" d="M886,151.8c6.29,0,8.47,1.92,8.47,8.48v12c0,6.29-2.18,8.48-8.47,8.48h-9.85c-10.12,0-18.86,1.09-26,3.28-1.92.27-2.74,1.37-2.74,3.28V289.07c0,6.29-1.91,8.47-8.2,8.47h-15c-6.29,0-8.48-2.18-8.48-8.47V175.59c0-8.75,1.92-12,10.67-15.58q20.1-7.38,50.86-8.21Z"/><path class="cls-1" d="M904.58,206.49c0-34.18,22.69-54.69,62.89-54.69,40.47,0,63.16,20.51,63.16,54.69V247c0,34.18-22.69,54.69-63.16,54.69-40.2,0-62.89-20.51-62.89-54.69Zm94.33,0c0-16.68-11.48-26-31.44-26s-31.17,9.29-31.17,26V247c0,16.4,11.21,26,31.17,26s31.44-9.58,31.44-26Z"/><path class="cls-1" d="M1090.26,289.07c0,6.29-2.19,8.47-8.48,8.47H1067c-6.57,0-8.48-2.18-8.48-8.47V103.68c0-6.29,1.91-8.47,8.48-8.47h14.76c6.29,0,8.48,2.18,8.48,8.47Z"/><path class="cls-1" d="M1234.36,155.91c6.29,0,8.48,1.91,8.48,8.2V276.76c0,8.75-1.92,11.76-10.67,15.32-16.13,6.28-33.9,9.57-53.59,9.57-38.28,0-57.15-19.69-57.15-55V164.11c0-6.29,2.19-8.2,8.48-8.2h15c6.29,0,8.2,1.91,8.2,8.2v81.48c0,18,9.84,27.07,29.8,27.07a87.61,87.61,0,0,0,25.16-3.28,4.56,4.56,0,0,0,3-4.65V164.11c0-6.29,2.18-8.2,8.48-8.2Z"/><path class="cls-1" d="M1328.16,151.8c29.26,0,48.95,9.85,58.52,29.26,3,5.47,1.36,9.57-4.38,12.31l-12.3,4.92c-6.29,2.46-7.93,1.91-11.49-3.83-5.19-9.57-15-14.22-29.53-14.22-17.23,0-25.7,4.92-25.7,14.77,0,12,8.2,14.76,32,17,37.19,3.56,55.78,13.4,55.78,44,0,27.62-21,45.67-59.06,45.67-32,0-52.5-10.94-61-33.09-2.18-5.74-.27-9.57,5.47-11.48l12.31-3.83c5.47-2.19,8.75-1.1,11.21,5.19,4.1,10.12,14.49,15,30.9,15,19.41,0,29-5.47,29-16.13,0-12-8.48-15-32.81-17.5-12.85-1.37-20.24-2.46-30.9-6.56a38.74,38.74,0,0,1-12.85-7.39c-6.56-5.74-11.48-16.13-11.48-30.07C1271.84,168.76,1291.25,151.8,1328.16,151.8Z"/><path class="cls-2" d="M341.58,96.33a28.89,28.89,0,1,0-40.85,40.85,28.86,28.86,0,0,1,.26,40.53c-.08.08-.18.13-.26.22a29,29,0,0,0,0,40.95c.08.08.18.13.26.21a28.86,28.86,0,0,1-.26,40.53,28.89,28.89,0,1,0,40.85,0,28.87,28.87,0,0,1-.26-40.53c.08-.08.18-.13.26-.21a29,29,0,0,0,0-40.95c-.08-.09-.18-.14-.26-.22a28.87,28.87,0,0,1,.26-40.53A28.89,28.89,0,0,0,341.58,96.33ZM423.23,178a28.89,28.89,0,1,0-40.85,0,28.87,28.87,0,0,1,0,40.85,28.89,28.89,0,1,0,40.85,0A28.89,28.89,0,0,1,423.23,178ZM144,266.58a19.25,19.25,0,1,0,27.23,0A19.25,19.25,0,0,0,144,266.58Zm81.77,40.7a19.26,19.26,0,1,0,27.24,0A19.27,19.27,0,0,0,225.76,307.28ZM253,89.57a19.26,19.26,0,1,0-27.24,0A19.27,19.27,0,0,0,253,89.57Zm-115.82,88.5a28.89,28.89,0,1,0,40.85,0A28.89,28.89,0,0,0,137.18,178.07Zm34.09-47.65a19.26,19.26,0,1,0-27.23,0A19.27,19.27,0,0,0,171.27,130.42ZM62.33,144a19.26,19.26,0,1,0,27.24,0A19.27,19.27,0,0,0,62.33,144Zm0,81.7a19.26,19.26,0,1,0,27.24,0A19.25,19.25,0,0,0,62.33,225.69ZM219,218.88a28.89,28.89,0,1,0,40.85,0A28.89,28.89,0,0,0,219,218.88Zm0-81.7a28.89,28.89,0,1,0,40.85,0A28.89,28.89,0,0,0,219,137.18Z"/></svg>