<svg xmlns="http://www.w3.org/2000/svg" fill="none" width="715" height="200">
  <g clip-path="url(#a)">
    <path fill="#000" d="M106.63 64.212c0-16.72-8.3-25.5-28.19-25.5H53v51.28h25.41c19.93 0 28.22-8.5 28.22-25.78Zm55.53.56c0 20.56-10.27 34.82-29.54 45.83l42.54 85H115.6l-34-70.48H53v70.46H0V3.612h86.73c51.93 0 75.43 24.96 75.43 61.16ZM556.43 4.059l-20.7 40.59h67.68v151.35h53.32V44.649H715V4.059H556.43Z"/>
    <path fill="#420828" d="M510 3.849h29l-114.1 93.49v-32.53L510 3.848Z"/>
    <path fill="#7D1345" d="M509.7 3.849H540l-44 85.73-48 21.77 61.7-107.5Z"/>
    <path fill="#B51E6D" d="m447.9 111.349 48-21.77 52.3 105.85h-59.81l-40.49-84.08Z"/>
    <path fill="#000" d="M425.881 4h-53.05v191.67h53.05V4Z"/>
    <path fill="#000" fill-rule="evenodd" d="M266.051 0c-27.36 0-49.46 9-66 26.88s-24.86 41.95-24.86 72.93v.55c0 31 8.287 55.407 24.86 73.22 16.59 17.82 38.67 26.6 66 26.6s49.44-8.78 65.74-26.6c16.573-17.827 24.86-42.233 24.86-73.22v-.55c0-31-8.29-55.09-24.86-72.93C315.491 9.05 293.401 0 266.051 0Zm-.26 39c-11.16 0-20.18 5.65-26.94 16.8-6.76 11.15-10.15 26.21-10.15 45.58v.34c0 19.38 3.383 34.637 10.15 45.77 6.77 11.14 15.78 16.62 26.94 16.62 11.16 0 20.18-5.48 26.83-16.62 6.65-11.14 10.15-26.4 10.15-45.77v-.34c0-19.37-3.38-34.43-10.15-45.58-6.77-11.15-15.62-16.76-26.83-16.76V39Z" clip-rule="evenodd"/>
  </g>
  <defs>
    <clipPath id="a">
      <path fill="#fff" d="M0 0h715v200.18H0z"/>
    </clipPath>
  </defs>
</svg>