<svg width="1200" height="267" viewBox="0 0 1200 267" fill="none" xmlns="http://www.w3.org/2000/svg">
<g clip-path="url(#clip0_501_4)">
<rect width="1200" height="267" fill="#242424"/>
<path d="M164.984 133L147.512 80.2H158.072L168.92 113.992C169.624 115.976 170.232 117.992 170.744 120.04C171.32 122.024 171.736 123.592 171.992 124.744C172.312 123.592 172.728 122.024 173.24 120.04C173.816 117.992 174.392 115.976 174.968 113.992L185.624 80.2H196.088L178.616 133H164.984ZM208.723 133V122.728L230.419 100.36C233.747 96.904 236.179 93.8 237.715 91.048C239.315 88.232 240.115 85.448 240.115 82.696C240.115 79.112 239.123 76.296 237.139 74.248C235.219 72.2 232.563 71.176 229.171 71.176C225.459 71.176 222.515 72.264 220.339 74.44C218.227 76.552 217.171 79.464 217.171 83.176H206.803C206.931 78.824 207.923 75.08 209.779 71.944C211.635 68.744 214.227 66.28 217.555 64.552C220.883 62.824 224.787 61.96 229.267 61.96C233.555 61.96 237.299 62.792 240.499 64.456C243.699 66.12 246.163 68.456 247.891 71.464C249.619 74.472 250.483 78.024 250.483 82.12C250.483 86.28 249.395 90.344 247.219 94.312C245.107 98.28 241.619 102.696 236.755 107.56L220.915 123.592H251.539V133H208.723ZM319.816 133L337.672 62.92H351.304L369.16 133H358.696L354.472 115.24H334.6L330.376 133H319.816ZM336.52 106.696H352.456L347.656 86.44C346.824 82.856 346.12 79.752 345.544 77.128C345.032 74.44 344.68 72.616 344.488 71.656C344.296 72.616 343.944 74.44 343.432 77.128C342.92 79.752 342.216 82.824 341.32 86.344L336.52 106.696ZM409.634 133C406.37 133 403.522 132.36 401.09 131.08C398.658 129.736 396.738 127.848 395.33 125.416C393.986 122.984 393.314 120.168 393.314 116.968V72.328H376.034V62.92H403.682V116.968C403.682 119.016 404.258 120.648 405.41 121.864C406.562 123.016 408.13 123.592 410.114 123.592H426.434V133H409.634ZM438.877 150.28V80.2H449.149V90.28H451.357L449.149 92.68C449.149 88.52 450.429 85.256 452.989 82.888C455.613 80.456 459.101 79.24 463.453 79.24C468.765 79.24 472.989 81.032 476.125 84.616C479.325 88.136 480.925 92.968 480.925 99.112V113.992C480.925 118.088 480.189 121.64 478.717 124.648C477.309 127.592 475.293 129.896 472.669 131.56C470.109 133.16 467.037 133.96 463.453 133.96C459.165 133.96 455.709 132.776 453.085 130.408C450.461 127.976 449.149 124.68 449.149 120.52L451.357 122.92H448.957L449.245 135.208V150.28H438.877ZM459.901 124.936C463.293 124.936 465.917 123.976 467.773 122.056C469.693 120.072 470.653 117.224 470.653 113.512V99.688C470.653 95.976 469.693 93.16 467.773 91.24C465.917 89.256 463.293 88.264 459.901 88.264C456.637 88.264 454.045 89.288 452.125 91.336C450.205 93.32 449.245 96.104 449.245 99.688V113.512C449.245 117.096 450.205 119.912 452.125 121.96C454.045 123.944 456.637 124.936 459.901 124.936ZM496.439 133V62.92H506.807V80.2L506.711 90.28H509.207L506.711 92.68C506.711 88.456 507.959 85.16 510.455 82.792C512.951 80.424 516.407 79.24 520.823 79.24C526.071 79.24 530.263 80.936 533.399 84.328C536.535 87.656 538.103 92.168 538.103 97.864V133H527.735V99.016C527.735 95.56 526.807 92.872 524.951 90.952C523.095 89.032 520.567 88.072 517.367 88.072C514.103 88.072 511.511 89.096 509.591 91.144C507.735 93.128 506.807 95.976 506.807 99.688V133H496.439ZM569.458 133.96C563.954 133.96 559.602 132.552 556.402 129.736C553.266 126.856 551.698 122.952 551.698 118.024C551.698 113.032 553.362 109.128 556.69 106.312C560.082 103.432 564.722 101.992 570.609 101.992H585.298V97.096C585.298 94.216 584.402 91.976 582.61 90.376C580.818 88.776 578.29 87.976 575.026 87.976C572.146 87.976 569.746 88.616 567.826 89.896C565.906 91.112 564.786 92.744 564.466 94.792H554.29C554.866 90.056 557.042 86.28 560.818 83.464C564.658 80.648 569.49 79.24 575.314 79.24C581.586 79.24 586.546 80.84 590.194 84.04C593.842 87.176 595.666 91.464 595.666 96.904V133H585.586V123.304H583.858L585.586 121.384C585.586 125.224 584.114 128.296 581.17 130.6C578.226 132.84 574.322 133.96 569.458 133.96ZM572.53 125.992C576.242 125.992 579.282 125.064 581.65 123.208C584.082 121.288 585.298 118.856 585.298 115.912V109H570.802C568.114 109 565.97 109.736 564.37 111.208C562.834 112.68 562.066 114.696 562.066 117.256C562.066 119.944 562.994 122.088 564.85 123.688C566.706 125.224 569.266 125.992 572.53 125.992Z" fill="#8B5CF6"/>
<path d="M634.199 133V63.1818H660.381C665.744 63.1818 670.244 64.1136 673.881 65.9773C677.54 67.8409 680.301 70.4545 682.165 73.8182C684.051 77.1591 684.994 81.0568 684.994 85.5114C684.994 89.9886 684.04 93.875 682.131 97.1705C680.244 100.443 677.46 102.977 673.778 104.773C670.097 106.545 665.574 107.432 660.21 107.432H641.562V96.9318H658.506C661.642 96.9318 664.21 96.5 666.21 95.6364C668.21 94.75 669.688 93.4659 670.642 91.7841C671.619 90.0795 672.108 87.9886 672.108 85.5114C672.108 83.0341 671.619 80.9205 670.642 79.1705C669.665 77.3977 668.176 76.0568 666.176 75.1477C664.176 74.2159 661.597 73.75 658.438 73.75H646.847V133H634.199ZM670.267 101.364L687.551 133H673.438L656.46 101.364H670.267ZM718.523 134.023C713.273 134.023 708.739 132.932 704.92 130.75C701.125 128.545 698.205 125.432 696.159 121.409C694.114 117.364 693.091 112.602 693.091 107.125C693.091 101.739 694.114 97.0114 696.159 92.9432C698.227 88.8523 701.114 85.6705 704.818 83.3977C708.523 81.1023 712.875 79.9545 717.875 79.9545C721.102 79.9545 724.148 80.4773 727.011 81.5227C729.898 82.5455 732.443 84.1364 734.648 86.2955C736.875 88.4545 738.625 91.2045 739.898 94.5455C741.17 97.8636 741.807 101.818 741.807 106.409V110.193H698.886V101.875H729.977C729.955 99.5114 729.443 97.4091 728.443 95.5682C727.443 93.7045 726.045 92.2386 724.25 91.1705C722.477 90.1023 720.409 89.5682 718.045 89.5682C715.523 89.5682 713.307 90.1818 711.398 91.4091C709.489 92.6136 708 94.2045 706.932 96.1818C705.886 98.1364 705.352 100.284 705.33 102.625V109.886C705.33 112.932 705.886 115.545 707 117.727C708.114 119.886 709.67 121.545 711.67 122.705C713.67 123.841 716.011 124.409 718.693 124.409C720.489 124.409 722.114 124.159 723.568 123.659C725.023 123.136 726.284 122.375 727.352 121.375C728.42 120.375 729.227 119.136 729.773 117.659L741.295 118.955C740.568 122 739.182 124.659 737.136 126.932C735.114 129.182 732.523 130.932 729.364 132.182C726.205 133.409 722.591 134.023 718.523 134.023ZM764.588 63.1818V133H752.247V63.1818H764.588ZM800.46 134.023C795.21 134.023 790.676 132.932 786.858 130.75C783.063 128.545 780.142 125.432 778.097 121.409C776.051 117.364 775.028 112.602 775.028 107.125C775.028 101.739 776.051 97.0114 778.097 92.9432C780.165 88.8523 783.051 85.6705 786.756 83.3977C790.46 81.1023 794.812 79.9545 799.812 79.9545C803.04 79.9545 806.085 80.4773 808.949 81.5227C811.835 82.5455 814.381 84.1364 816.585 86.2955C818.813 88.4545 820.563 91.2045 821.835 94.5455C823.108 97.8636 823.744 101.818 823.744 106.409V110.193H780.824V101.875H811.915C811.892 99.5114 811.381 97.4091 810.381 95.5682C809.381 93.7045 807.983 92.2386 806.188 91.1705C804.415 90.1023 802.347 89.5682 799.983 89.5682C797.46 89.5682 795.244 90.1818 793.335 91.4091C791.426 92.6136 789.938 94.2045 788.869 96.1818C787.824 98.1364 787.29 100.284 787.267 102.625V109.886C787.267 112.932 787.824 115.545 788.938 117.727C790.051 119.886 791.608 121.545 793.608 122.705C795.608 123.841 797.949 124.409 800.631 124.409C802.426 124.409 804.051 124.159 805.506 123.659C806.96 123.136 808.222 122.375 809.29 121.375C810.358 120.375 811.165 119.136 811.71 117.659L823.233 118.955C822.506 122 821.119 124.659 819.074 126.932C817.051 129.182 814.46 130.932 811.301 132.182C808.142 133.409 804.528 134.023 800.46 134.023ZM849.253 134.057C845.935 134.057 842.946 133.466 840.287 132.284C837.651 131.08 835.56 129.307 834.014 126.966C832.491 124.625 831.73 121.739 831.73 118.307C831.73 115.352 832.276 112.909 833.366 110.977C834.457 109.045 835.946 107.5 837.832 106.341C839.719 105.182 841.844 104.307 844.207 103.716C846.594 103.102 849.06 102.659 851.605 102.386C854.673 102.068 857.162 101.784 859.071 101.534C860.98 101.261 862.366 100.852 863.23 100.307C864.116 99.7386 864.56 98.8636 864.56 97.6818V97.4773C864.56 94.9091 863.798 92.9205 862.276 91.5114C860.753 90.1023 858.56 89.3977 855.696 89.3977C852.673 89.3977 850.276 90.0568 848.503 91.375C846.753 92.6932 845.571 94.25 844.957 96.0455L833.435 94.4091C834.344 91.2273 835.844 88.5682 837.935 86.4318C840.026 84.2727 842.582 82.6591 845.605 81.5909C848.628 80.5 851.969 79.9545 855.628 79.9545C858.151 79.9545 860.662 80.25 863.162 80.8409C865.662 81.4318 867.946 82.4091 870.014 83.7727C872.082 85.1136 873.741 86.9432 874.991 89.2614C876.264 91.5795 876.901 94.4773 876.901 97.9545V133H865.037V125.807H864.628C863.878 127.261 862.821 128.625 861.457 129.898C860.116 131.148 858.423 132.159 856.378 132.932C854.355 133.682 851.98 134.057 849.253 134.057ZM852.457 124.989C854.935 124.989 857.082 124.5 858.901 123.523C860.719 122.523 862.116 121.205 863.094 119.568C864.094 117.932 864.594 116.148 864.594 114.216V108.045C864.207 108.364 863.548 108.659 862.616 108.932C861.707 109.205 860.685 109.443 859.548 109.648C858.412 109.852 857.287 110.034 856.173 110.193C855.06 110.352 854.094 110.489 853.276 110.602C851.435 110.852 849.787 111.261 848.332 111.83C846.878 112.398 845.73 113.193 844.889 114.216C844.048 115.216 843.628 116.511 843.628 118.102C843.628 120.375 844.457 122.091 846.116 123.25C847.776 124.409 849.889 124.989 852.457 124.989ZM930.696 94.4773L919.446 95.7045C919.128 94.5682 918.571 93.5 917.776 92.5C917.003 91.5 915.957 90.6932 914.639 90.0795C913.321 89.4659 911.707 89.1591 909.798 89.1591C907.23 89.1591 905.071 89.7159 903.321 90.8295C901.594 91.9432 900.741 93.3864 900.764 95.1591C900.741 96.6818 901.298 97.9205 902.435 98.875C903.594 99.8295 905.503 100.614 908.162 101.227L917.094 103.136C922.048 104.205 925.73 105.898 928.139 108.216C930.571 110.534 931.798 113.568 931.821 117.318C931.798 120.614 930.832 123.523 928.923 126.045C927.037 128.545 924.412 130.5 921.048 131.909C917.685 133.318 913.821 134.023 909.457 134.023C903.048 134.023 897.889 132.682 893.98 130C890.071 127.295 887.741 123.534 886.991 118.716L899.026 117.557C899.571 119.92 900.73 121.705 902.503 122.909C904.276 124.114 906.582 124.716 909.423 124.716C912.355 124.716 914.707 124.114 916.48 122.909C918.276 121.705 919.173 120.216 919.173 118.443C919.173 116.943 918.594 115.705 917.435 114.727C916.298 113.75 914.526 113 912.116 112.477L903.185 110.602C898.162 109.557 894.446 107.795 892.037 105.318C889.628 102.818 888.435 99.6591 888.457 95.8409C888.435 92.6136 889.31 89.8182 891.082 87.4545C892.878 85.0682 895.366 83.2273 898.548 81.9318C901.753 80.6136 905.446 79.9545 909.628 79.9545C915.764 79.9545 920.594 81.2614 924.116 83.875C927.662 86.4886 929.855 90.0227 930.696 94.4773ZM965.179 134.023C959.929 134.023 955.395 132.932 951.577 130.75C947.781 128.545 944.861 125.432 942.815 121.409C940.77 117.364 939.747 112.602 939.747 107.125C939.747 101.739 940.77 97.0114 942.815 92.9432C944.884 88.8523 947.77 85.6705 951.474 83.3977C955.179 81.1023 959.531 79.9545 964.531 79.9545C967.759 79.9545 970.804 80.4773 973.668 81.5227C976.554 82.5455 979.099 84.1364 981.304 86.2955C983.531 88.4545 985.281 91.2045 986.554 94.5455C987.827 97.8636 988.463 101.818 988.463 106.409V110.193H945.543V101.875H976.634C976.611 99.5114 976.099 97.4091 975.099 95.5682C974.099 93.7045 972.702 92.2386 970.906 91.1705C969.134 90.1023 967.065 89.5682 964.702 89.5682C962.179 89.5682 959.963 90.1818 958.054 91.4091C956.145 92.6136 954.656 94.2045 953.588 96.1818C952.543 98.1364 952.009 100.284 951.986 102.625V109.886C951.986 112.932 952.543 115.545 953.656 117.727C954.77 119.886 956.327 121.545 958.327 122.705C960.327 123.841 962.668 124.409 965.349 124.409C967.145 124.409 968.77 124.159 970.224 123.659C971.679 123.136 972.94 122.375 974.009 121.375C975.077 120.375 975.884 119.136 976.429 117.659L987.952 118.955C987.224 122 985.838 124.659 983.793 126.932C981.77 129.182 979.179 130.932 976.02 132.182C972.861 133.409 969.247 134.023 965.179 134.023ZM1018.34 133.92C1014.22 133.92 1010.54 132.864 1007.29 130.75C1004.04 128.636 1001.47 125.568 999.585 121.545C997.699 117.523 996.756 112.636 996.756 106.886C996.756 101.068 997.71 96.1591 999.619 92.1591C1001.55 88.1364 1004.15 85.1023 1007.43 83.0568C1010.7 80.9886 1014.35 79.9545 1018.37 79.9545C1021.44 79.9545 1023.96 80.4773 1025.94 81.5227C1027.91 82.5455 1029.48 83.7841 1030.64 85.2386C1031.8 86.6705 1032.7 88.0227 1033.34 89.2955H1033.85V63.1818H1046.22V133H1034.09V124.75H1033.34C1032.7 126.023 1031.78 127.375 1030.57 128.807C1029.37 130.216 1027.78 131.42 1025.8 132.42C1023.82 133.42 1021.34 133.92 1018.34 133.92ZM1021.78 123.795C1024.39 123.795 1026.62 123.091 1028.46 121.682C1030.3 120.25 1031.7 118.261 1032.65 115.716C1033.61 113.17 1034.09 110.205 1034.09 106.818C1034.09 103.432 1033.61 100.489 1032.65 97.9886C1031.72 95.4886 1030.34 93.5455 1028.49 92.1591C1026.68 90.7727 1024.44 90.0795 1021.78 90.0795C1019.03 90.0795 1016.73 90.7955 1014.89 92.2273C1013.05 93.6591 1011.66 95.6364 1010.73 98.1591C1009.8 100.682 1009.34 103.568 1009.34 106.818C1009.34 110.091 1009.8 113.011 1010.73 115.58C1011.69 118.125 1013.09 120.136 1014.93 121.614C1016.79 123.068 1019.07 123.795 1021.78 123.795Z" fill="#F5F5F5"/>
<path d="M399.864 177.091H403.051V202.267C403.04 204.54 402.631 206.438 401.824 207.96C401.017 209.472 399.903 210.602 398.483 211.352C397.063 212.102 395.432 212.477 393.591 212.477C391.784 212.477 390.17 212.142 388.75 211.472C387.33 210.801 386.21 209.858 385.392 208.642C384.585 207.426 384.182 206 384.182 204.364H387.318C387.318 205.398 387.591 206.312 388.136 207.108C388.682 207.892 389.426 208.506 390.369 208.949C391.324 209.392 392.398 209.614 393.591 209.614C394.83 209.614 395.915 209.352 396.847 208.83C397.79 208.307 398.528 207.506 399.062 206.426C399.597 205.335 399.864 203.949 399.864 202.267V177.091ZM421.869 212.545C419.608 212.545 417.608 211.972 415.869 210.824C414.142 209.676 412.79 208.091 411.812 206.068C410.835 204.034 410.347 201.687 410.347 199.028C410.347 196.347 410.835 193.989 411.812 191.955C412.79 189.909 414.142 188.318 415.869 187.182C417.608 186.034 419.608 185.46 421.869 185.46C424.131 185.46 426.125 186.034 427.852 187.182C429.58 188.33 430.932 189.92 431.909 191.955C432.898 193.989 433.392 196.347 433.392 199.028C433.392 201.687 432.903 204.034 431.926 206.068C430.949 208.091 429.591 209.676 427.852 210.824C426.125 211.972 424.131 212.545 421.869 212.545ZM421.869 209.767C423.688 209.767 425.227 209.278 426.489 208.301C427.75 207.324 428.705 206.023 429.352 204.398C430.011 202.773 430.341 200.983 430.341 199.028C430.341 197.074 430.011 195.278 429.352 193.642C428.705 192.006 427.75 190.693 426.489 189.705C425.227 188.716 423.688 188.222 421.869 188.222C420.063 188.222 418.523 188.716 417.25 189.705C415.989 190.693 415.028 192.006 414.369 193.642C413.722 195.278 413.398 197.074 413.398 199.028C413.398 200.983 413.722 202.773 414.369 204.398C415.028 206.023 415.989 207.324 417.25 208.301C418.511 209.278 420.051 209.767 421.869 209.767ZM440.087 212V185.818H443.138V212H440.087ZM441.638 181.318C441.013 181.318 440.479 181.108 440.036 180.688C439.592 180.256 439.371 179.739 439.371 179.136C439.371 178.534 439.592 178.023 440.036 177.602C440.479 177.17 441.013 176.955 441.638 176.955C442.263 176.955 442.797 177.17 443.24 177.602C443.683 178.023 443.905 178.534 443.905 179.136C443.905 179.739 443.683 180.256 443.24 180.688C442.797 181.108 442.263 181.318 441.638 181.318ZM454.196 195.636V212H451.162V185.818H454.111V189.926H454.384C454.997 188.585 455.952 187.511 457.247 186.705C458.554 185.886 460.168 185.477 462.088 185.477C463.849 185.477 465.395 185.847 466.724 186.585C468.065 187.312 469.105 188.386 469.844 189.807C470.594 191.227 470.969 192.972 470.969 195.04V212H467.935V195.227C467.935 193.08 467.332 191.381 466.128 190.131C464.935 188.881 463.332 188.256 461.321 188.256C459.946 188.256 458.724 188.551 457.656 189.142C456.588 189.733 455.741 190.585 455.116 191.699C454.503 192.801 454.196 194.114 454.196 195.636ZM502.771 185.818V188.46H490.277V185.818H502.771ZM494.18 179.545H497.232V205.165C497.232 206.256 497.419 207.114 497.794 207.739C498.169 208.352 498.658 208.79 499.26 209.051C499.862 209.301 500.504 209.426 501.186 209.426C501.584 209.426 501.925 209.403 502.209 209.358C502.493 209.301 502.743 209.244 502.959 209.188L503.607 211.932C503.311 212.045 502.947 212.148 502.516 212.239C502.084 212.341 501.55 212.392 500.913 212.392C499.8 212.392 498.726 212.148 497.692 211.659C496.669 211.17 495.828 210.443 495.169 209.477C494.51 208.511 494.18 207.312 494.18 205.881V179.545ZM513.259 195.636V212H510.224V177.091H513.259V189.926H513.531C514.145 188.574 515.094 187.494 516.378 186.688C517.673 185.881 519.31 185.477 521.287 185.477C523.06 185.477 524.616 185.841 525.957 186.568C527.298 187.295 528.344 188.369 529.094 189.79C529.844 191.21 530.219 192.96 530.219 195.04V212H527.168V195.227C527.168 193.068 526.565 191.369 525.361 190.131C524.168 188.881 522.554 188.256 520.52 188.256C519.122 188.256 517.878 188.551 516.787 189.142C515.696 189.733 514.832 190.585 514.196 191.699C513.571 192.801 513.259 194.114 513.259 195.636ZM548.794 212.545C546.351 212.545 544.237 211.977 542.453 210.841C540.669 209.693 539.288 208.108 538.311 206.085C537.345 204.051 536.862 201.71 536.862 199.062C536.862 196.426 537.345 194.085 538.311 192.04C539.288 189.983 540.635 188.375 542.351 187.216C544.078 186.045 546.072 185.46 548.334 185.46C549.754 185.46 551.124 185.722 552.442 186.244C553.76 186.756 554.942 187.545 555.987 188.614C557.044 189.67 557.879 191.006 558.493 192.619C559.107 194.222 559.413 196.119 559.413 198.312V199.812H538.959V197.136H556.311C556.311 195.455 555.97 193.943 555.288 192.602C554.618 191.25 553.68 190.182 552.476 189.398C551.283 188.614 549.902 188.222 548.334 188.222C546.675 188.222 545.214 188.665 543.953 189.551C542.692 190.437 541.703 191.608 540.987 193.062C540.283 194.517 539.925 196.108 539.913 197.835V199.438C539.913 201.517 540.271 203.335 540.987 204.892C541.714 206.437 542.743 207.636 544.072 208.489C545.402 209.341 546.976 209.767 548.794 209.767C550.033 209.767 551.118 209.574 552.05 209.188C552.993 208.801 553.783 208.284 554.419 207.636C555.067 206.977 555.555 206.256 555.885 205.472L558.766 206.409C558.368 207.511 557.714 208.528 556.805 209.46C555.908 210.392 554.783 211.142 553.43 211.71C552.089 212.267 550.544 212.545 548.794 212.545ZM590.457 212H580.23V177.091H591.071C594.401 177.091 597.247 177.784 599.611 179.17C601.986 180.557 603.804 182.545 605.065 185.136C606.327 187.727 606.957 190.835 606.957 194.46C606.957 198.119 606.31 201.261 605.014 203.886C603.73 206.5 601.855 208.506 599.389 209.903C596.935 211.301 593.957 212 590.457 212ZM583.418 209.136H590.27C593.27 209.136 595.781 208.545 597.804 207.364C599.827 206.182 601.344 204.494 602.355 202.301C603.366 200.108 603.872 197.494 603.872 194.46C603.861 191.449 603.361 188.858 602.372 186.688C601.395 184.517 599.94 182.852 598.009 181.693C596.088 180.534 593.713 179.955 590.884 179.955H583.418V209.136ZM614.087 212V185.818H617.138V212H614.087ZM615.638 181.318C615.013 181.318 614.479 181.108 614.036 180.688C613.592 180.256 613.371 179.739 613.371 179.136C613.371 178.534 613.592 178.023 614.036 177.602C614.479 177.17 615.013 176.955 615.638 176.955C616.263 176.955 616.797 177.17 617.24 177.602C617.683 178.023 617.905 178.534 617.905 179.136C617.905 179.739 617.683 180.256 617.24 180.688C616.797 181.108 616.263 181.318 615.638 181.318ZM642.753 191.562L639.974 192.347C639.702 191.562 639.315 190.852 638.815 190.216C638.315 189.58 637.662 189.074 636.855 188.699C636.06 188.324 635.071 188.136 633.889 188.136C632.116 188.136 630.662 188.557 629.526 189.398C628.389 190.239 627.821 191.324 627.821 192.653C627.821 193.778 628.207 194.693 628.98 195.398C629.764 196.091 630.969 196.642 632.594 197.051L636.548 198.023C638.741 198.557 640.384 199.403 641.474 200.562C642.577 201.722 643.128 203.176 643.128 204.926C643.128 206.403 642.719 207.716 641.901 208.864C641.082 210.011 639.94 210.915 638.474 211.574C637.02 212.222 635.332 212.545 633.412 212.545C630.855 212.545 628.747 211.972 627.088 210.824C625.429 209.665 624.366 207.994 623.901 205.812L626.815 205.097C627.19 206.653 627.923 207.83 629.014 208.625C630.116 209.42 631.565 209.818 633.361 209.818C635.372 209.818 636.98 209.369 638.185 208.472C639.389 207.562 639.991 206.426 639.991 205.062C639.991 204.006 639.639 203.119 638.935 202.403C638.23 201.676 637.162 201.142 635.73 200.801L631.452 199.778C629.179 199.233 627.497 198.369 626.406 197.188C625.315 196.006 624.77 194.54 624.77 192.79C624.77 191.347 625.162 190.08 625.946 188.989C626.73 187.886 627.81 187.023 629.185 186.398C630.56 185.773 632.128 185.46 633.889 185.46C636.287 185.46 638.202 186.006 639.634 187.097C641.077 188.176 642.116 189.665 642.753 191.562ZM659.999 212.545C657.658 212.545 655.618 211.96 653.879 210.79C652.152 209.619 650.811 208.017 649.857 205.983C648.902 203.949 648.425 201.631 648.425 199.028C648.425 196.403 648.908 194.068 649.874 192.023C650.851 189.977 652.203 188.375 653.93 187.216C655.658 186.045 657.663 185.46 659.947 185.46C661.697 185.46 663.283 185.801 664.703 186.483C666.124 187.153 667.294 188.102 668.214 189.33C669.146 190.545 669.732 191.966 669.97 193.591H666.902C666.584 192.114 665.817 190.852 664.601 189.807C663.396 188.75 661.862 188.222 659.999 188.222C658.328 188.222 656.851 188.676 655.567 189.585C654.283 190.483 653.277 191.739 652.55 193.352C651.834 194.955 651.476 196.812 651.476 198.926C651.476 201.051 651.828 202.932 652.533 204.568C653.237 206.193 654.226 207.466 655.499 208.386C656.783 209.307 658.283 209.767 659.999 209.767C661.158 209.767 662.214 209.551 663.169 209.119C664.135 208.676 664.942 208.051 665.589 207.244C666.249 206.437 666.692 205.477 666.919 204.364H669.987C669.76 205.943 669.197 207.352 668.3 208.591C667.413 209.818 666.26 210.784 664.839 211.489C663.43 212.193 661.817 212.545 659.999 212.545ZM693.126 201.994V185.818H696.161V212H693.126V207.653H692.888C692.274 208.994 691.303 210.114 689.973 211.011C688.643 211.898 687.018 212.341 685.098 212.341C683.428 212.341 681.945 211.977 680.649 211.25C679.354 210.511 678.337 209.432 677.598 208.011C676.859 206.591 676.49 204.847 676.49 202.778V185.818H679.524V202.591C679.524 204.636 680.126 206.284 681.331 207.534C682.536 208.773 684.081 209.392 685.967 209.392C687.149 209.392 688.286 209.108 689.376 208.54C690.467 207.972 691.365 207.142 692.07 206.051C692.774 204.949 693.126 203.597 693.126 201.994ZM721.784 191.562L719.006 192.347C718.733 191.562 718.347 190.852 717.847 190.216C717.347 189.58 716.693 189.074 715.886 188.699C715.091 188.324 714.102 188.136 712.92 188.136C711.148 188.136 709.693 188.557 708.557 189.398C707.42 190.239 706.852 191.324 706.852 192.653C706.852 193.778 707.239 194.693 708.011 195.398C708.795 196.091 710 196.642 711.625 197.051L715.58 198.023C717.773 198.557 719.415 199.403 720.506 200.562C721.608 201.722 722.159 203.176 722.159 204.926C722.159 206.403 721.75 207.716 720.932 208.864C720.114 210.011 718.972 210.915 717.506 211.574C716.051 212.222 714.364 212.545 712.443 212.545C709.886 212.545 707.778 211.972 706.119 210.824C704.46 209.665 703.398 207.994 702.932 205.812L705.847 205.097C706.222 206.653 706.955 207.83 708.045 208.625C709.148 209.42 710.597 209.818 712.392 209.818C714.403 209.818 716.011 209.369 717.216 208.472C718.42 207.562 719.023 206.426 719.023 205.062C719.023 204.006 718.67 203.119 717.966 202.403C717.261 201.676 716.193 201.142 714.761 200.801L710.483 199.778C708.21 199.233 706.528 198.369 705.438 197.188C704.347 196.006 703.801 194.54 703.801 192.79C703.801 191.347 704.193 190.08 704.977 188.989C705.761 187.886 706.841 187.023 708.216 186.398C709.591 185.773 711.159 185.46 712.92 185.46C715.318 185.46 717.233 186.006 718.665 187.097C720.108 188.176 721.148 189.665 721.784 191.562ZM746.393 191.562L743.615 192.347C743.342 191.562 742.956 190.852 742.456 190.216C741.956 189.58 741.303 189.074 740.496 188.699C739.7 188.324 738.712 188.136 737.53 188.136C735.757 188.136 734.303 188.557 733.166 189.398C732.03 190.239 731.462 191.324 731.462 192.653C731.462 193.778 731.848 194.693 732.621 195.398C733.405 196.091 734.609 196.642 736.234 197.051L740.189 198.023C742.382 198.557 744.024 199.403 745.115 200.562C746.217 201.722 746.768 203.176 746.768 204.926C746.768 206.403 746.359 207.716 745.541 208.864C744.723 210.011 743.581 210.915 742.115 211.574C740.661 212.222 738.973 212.545 737.053 212.545C734.496 212.545 732.388 211.972 730.729 210.824C729.07 209.665 728.007 207.994 727.541 205.812L730.456 205.097C730.831 206.653 731.564 207.83 732.655 208.625C733.757 209.42 735.206 209.818 737.001 209.818C739.013 209.818 740.621 209.369 741.825 208.472C743.03 207.562 743.632 206.426 743.632 205.062C743.632 204.006 743.28 203.119 742.575 202.403C741.871 201.676 740.803 201.142 739.371 200.801L735.092 199.778C732.82 199.233 731.138 198.369 730.047 197.188C728.956 196.006 728.411 194.54 728.411 192.79C728.411 191.347 728.803 190.08 729.587 188.989C730.371 187.886 731.45 187.023 732.825 186.398C734.2 185.773 735.768 185.46 737.53 185.46C739.928 185.46 741.842 186.006 743.274 187.097C744.717 188.176 745.757 189.665 746.393 191.562ZM753.446 212V185.818H756.497V212H753.446ZM754.997 181.318C754.372 181.318 753.838 181.108 753.395 180.688C752.952 180.256 752.73 179.739 752.73 179.136C752.73 178.534 752.952 178.023 753.395 177.602C753.838 177.17 754.372 176.955 754.997 176.955C755.622 176.955 756.156 177.17 756.599 177.602C757.043 178.023 757.264 178.534 757.264 179.136C757.264 179.739 757.043 180.256 756.599 180.688C756.156 181.108 755.622 181.318 754.997 181.318ZM774.697 212.545C772.436 212.545 770.436 211.972 768.697 210.824C766.97 209.676 765.618 208.091 764.641 206.068C763.663 204.034 763.175 201.687 763.175 199.028C763.175 196.347 763.663 193.989 764.641 191.955C765.618 189.909 766.97 188.318 768.697 187.182C770.436 186.034 772.436 185.46 774.697 185.46C776.959 185.46 778.953 186.034 780.68 187.182C782.408 188.33 783.76 189.92 784.737 191.955C785.726 193.989 786.22 196.347 786.22 199.028C786.22 201.687 785.732 204.034 784.754 206.068C783.777 208.091 782.419 209.676 780.68 210.824C778.953 211.972 776.959 212.545 774.697 212.545ZM774.697 209.767C776.516 209.767 778.055 209.278 779.317 208.301C780.578 207.324 781.533 206.023 782.18 204.398C782.839 202.773 783.169 200.983 783.169 199.028C783.169 197.074 782.839 195.278 782.18 193.642C781.533 192.006 780.578 190.693 779.317 189.705C778.055 188.716 776.516 188.222 774.697 188.222C772.891 188.222 771.351 188.716 770.078 189.705C768.817 190.693 767.857 192.006 767.197 193.642C766.55 195.278 766.226 197.074 766.226 199.028C766.226 200.983 766.55 202.773 767.197 204.398C767.857 206.023 768.817 207.324 770.078 208.301C771.339 209.278 772.879 209.767 774.697 209.767ZM795.915 195.636V212H792.881V185.818H795.83V189.926H796.102C796.716 188.585 797.67 187.511 798.966 186.705C800.273 185.886 801.886 185.477 803.807 185.477C805.568 185.477 807.114 185.847 808.443 186.585C809.784 187.312 810.824 188.386 811.562 189.807C812.312 191.227 812.688 192.972 812.688 195.04V212H809.653V195.227C809.653 193.08 809.051 191.381 807.847 190.131C806.653 188.881 805.051 188.256 803.04 188.256C801.665 188.256 800.443 188.551 799.375 189.142C798.307 189.733 797.46 190.585 796.835 191.699C796.222 192.801 795.915 194.114 795.915 195.636Z" fill="white"/>
</g>
<defs>
<clipPath id="clip0_501_4">
<rect width="1200" height="267" fill="white"/>
</clipPath>
</defs>
</svg>
