<?xml version="1.0" encoding="UTF-8"?>
<!DOCTYPE svg PUBLIC "-//W3C//DTD SVG 1.1//EN" "http://www.w3.org/Graphics/SVG/1.1/DTD/svg11.dtd">
<!-- Creator: CorelDRAW X7 -->
<svg xmlns="http://www.w3.org/2000/svg" xml:space="preserve" width="12.1918mm" height="12.1918mm" version="1.1" style="shape-rendering:geometricPrecision; text-rendering:geometricPrecision; image-rendering:optimizeQuality; fill-rule:evenodd; clip-rule:evenodd"
viewBox="0 0 1219 1219"
 xmlns:xlink="http://www.w3.org/1999/xlink">
 <defs>
  <style type="text/css">
   <![CDATA[
    .fil0 {fill:#6A35BF}
    .fil1 {fill:#FEFEFE;fill-rule:nonzero}
   ]]>
  </style>
 </defs>
 <g id="Layer_x0020_1">
  <metadata id="CorelCorpID_0Corel-Layer"/>
  <g id="_920812800">
   <rect class="fil0" width="1219" height="1219" rx="178" ry="178"/>
   <path class="fil1" d="M574 576l-30 111 -23 89 0 0 -33 127c-18,70 -90,111 -159,93 -70,-18 -112,-89 -93,-159l16 -61 23 -89 64 -242 7 -28 12 -44c4,-17 11,-33 19,-48l0 0c4,-8 10,-16 15,-24l1 0 1 -1c4,-6 9,-11 14,-17l0 0 1 -1 1 -1 1 -1 0 0 1 -1 0 -1c1,0 1,-1 2,-1l0 0c25,-25 57,-43 92,-52 19,-5 40,-7 60,-6l143 0 98 0c57,0 109,23 146,61 14,13 25,28 35,45l-181 0 -98 0 -146 0 0 0 0 0 -6 0 -5 0c-16,1 -31,6 -45,14 -22,13 -39,34 -46,61l-5 17 -7 28 -64 242 -23 89 0 0 -23 88c-4,13 4,26 17,29 12,3 26,-4 29,-17l26 -100 0 0 24 -89 0 0 29 -111c21,-79 41,-106 138,-106l59 0 23 0 60 0 36 0c57,0 109,23 146,61 14,13 25,29 35,45l-181 0 -36 0 -60 0 -23 0 -59 0 -28 0z"/>
  </g>
 </g>
</svg>
