<?xml version="1.0" encoding="UTF-8"?>
<!DOCTYPE svg PUBLIC "-//W3C//DTD SVG 1.1//EN" "http://www.w3.org/Graphics/SVG/1.1/DTD/svg11.dtd">
<!-- Creator: CorelDRAW X7 -->
<svg xmlns="http://www.w3.org/2000/svg" xml:space="preserve" width="21.6746mm" height="21.6746mm" version="1.1" style="shape-rendering:geometricPrecision; text-rendering:geometricPrecision; image-rendering:optimizeQuality; fill-rule:evenodd; clip-rule:evenodd"
viewBox="0 0 2167 2167"
 xmlns:xlink="http://www.w3.org/1999/xlink">
 <defs>
  <style type="text/css">
   <![CDATA[
    .fil0 {fill:#EEEEEF}
    .fil1 {fill:#6A35BF;fill-rule:nonzero}
   ]]>
  </style>
 </defs>
 <g id="Layer_x0020_1">
  <metadata id="CorelCorpID_0Corel-Layer"/>
  <rect class="fil0" width="2167" height="2167" rx="317" ry="317"/>
  <path class="fil1" d="M1020 1025l-52 197 -41 158 0 0 -60 226c-32,123 -159,197 -283,165 -123,-33 -197,-159 -165,-283l29 -108 41 -158 113 -431 14 -50 20 -78c8,-30 19,-59 34,-85l0 0c8,-15 17,-29 27,-42l1 -1 2 -2c8,-10 16,-20 25,-29l1 -1 1 -2 2 -2 1 -1 1 -1 1 -1 1 -1c1,-1 2,-2 3,-3l0 0c45,-43 101,-75 164,-91 34,-9 70,-13 107,-12l253 0 175 0c101,0 193,41 260,108 24,24 44,51 61,81l-321 0 -175 0 -259 0 0 0 0 0 -10 0 -9 0c-29,2 -56,10 -81,24 -39,23 -70,61 -82,109l-8 30 -13 50 -114 431 -41 158 0 0 -41 156c-6,23 8,46 30,52 23,6 46,-8 52,-31l47 -177 0 0 41 -158 0 0 52 -197c38,-142 73,-189 246,-189l105 0 41 0 106 0 65 0c101,0 193,41 260,107 24,24 45,52 61,82l-321 0 -65 0 -106 0 -41 0 -105 0 -50 0z"/>
 </g>
</svg>
