<?xml version="1.0" encoding="UTF-8"?>
<!DOCTYPE svg PUBLIC "-//W3C//DTD SVG 1.1//EN" "http://www.w3.org/Graphics/SVG/1.1/DTD/svg11.dtd">
<!-- Creator: CorelDRAW X7 -->
<svg xmlns="http://www.w3.org/2000/svg" xml:space="preserve" width="43.3492mm" height="43.3492mm" version="1.1" style="shape-rendering:geometricPrecision; text-rendering:geometricPrecision; image-rendering:optimizeQuality; fill-rule:evenodd; clip-rule:evenodd"
viewBox="0 0 4335 4335"
 xmlns:xlink="http://www.w3.org/1999/xlink">
 <defs>
  <style type="text/css">
   <![CDATA[
    .fil0 {fill:#EEEEEF}
    .fil1 {fill:#6A35BF;fill-rule:nonzero}
   ]]>
  </style>
 </defs>
 <g id="Layer_x0020_1">
  <metadata id="CorelCorpID_0Corel-Layer"/>
  <rect class="fil0" width="4335" height="4335" rx="634" ry="634"/>
  <path class="fil1" d="M2040 2049l-104 395 -83 315 1 0 -119 452c-65,248 -319,396 -566,331 -248,-65 -396,-319 -331,-566l57 -217 83 -315 227 -862 26 -101 41 -156c16,-60 39,-116 68,-169l0 0c16,-29 35,-57 55,-84l1 -2 4 -5c15,-20 32,-39 49,-57l3 -3 3 -3 4 -4 1 -1 3 -3 1 -2 3 -2c1,-2 3,-4 5,-5l0 0c90,-87 202,-152 327,-184 69,-18 141,-26 214,-23l508 0 350 0c202,0 385,83 518,216 48,48 90,103 123,162l-641 0 -350 0 -518 0 0 0 0 0 -22 0 -18 0c-57,4 -112,21 -160,49 -79,46 -140,122 -165,216l-16 60 -26 101 -227 862 -83 315 1 0 -82 313c-12,45 15,91 60,103 45,12 92,-15 103,-60l94 -356 0 0 83 -315 0 0 104 -395c74,-282 145,-378 490,-378l212 0 80 0 213 0 131 0c202,0 386,83 518,216 49,48 90,103 123,162l-641 0 -131 0 -213 0 -80 0 -212 0 -99 0z"/>
 </g>
</svg>
