<?xml version="1.0" encoding="UTF-8"?>
<!DOCTYPE svg PUBLIC "-//W3C//DTD SVG 1.1//EN" "http://www.w3.org/Graphics/SVG/1.1/DTD/svg11.dtd">
<!-- Creator: CorelDRAW X7 -->
<svg xmlns="http://www.w3.org/2000/svg" xml:space="preserve" width="6.0958mm" height="6.0958mm" version="1.1" style="shape-rendering:geometricPrecision; text-rendering:geometricPrecision; image-rendering:optimizeQuality; fill-rule:evenodd; clip-rule:evenodd"
viewBox="0 0 610 610"
 xmlns:xlink="http://www.w3.org/1999/xlink">
 <defs>
  <style type="text/css">
   <![CDATA[
    .fil0 {fill:#EEEEEF}
    .fil1 {fill:#6A35BF;fill-rule:nonzero}
   ]]>
  </style>
 </defs>
 <g id="Layer_x0020_1">
  <metadata id="CorelCorpID_0Corel-Layer"/>
  <rect class="fil0" width="610" height="610" rx="89" ry="89"/>
  <path class="fil1" d="M287 288l-15 56 -11 44 0 0 -17 64c-9,34 -45,55 -80,46 -34,-9 -55,-45 -46,-80l8 -30 12 -44 31 -122 4 -14 6 -22c2,-8 5,-16 9,-23l0 0c3,-5 5,-9 8,-12l0 0 1 -1c2,-3 4,-6 7,-8l0 -1 1 0 0 -1 0 0 1 0 0 0 0 -1c0,0 1,0 1,-1l0 0c13,-12 28,-21 46,-25 10,-3 20,-4 30,-4l71 0 50 0c28,0 54,12 73,31 6,7 12,14 17,23l-90 0 -50 0 -72 0 0 0 0 0 -3 0 -3 0c-8,0 -16,2 -22,6 -12,7 -20,18 -24,31l-2 8 -4 14 -32 122 -11 44 0 0 -12 44c-1,6 3,13 9,15 6,1 13,-3 14,-9l14 -50 0 0 11 -44 0 0 15 -56c10,-40 20,-53 69,-53l30 0 11 0 30 0 18 0c29,0 54,12 73,30 7,7 13,15 17,23l-90 0 -18 0 -30 0 -11 0 -30 0 -14 0z"/>
 </g>
</svg>
