<?xml version="1.0" encoding="UTF-8"?>
<!DOCTYPE svg PUBLIC "-//W3C//DTD SVG 1.1//EN" "http://www.w3.org/Graphics/SVG/1.1/DTD/svg11.dtd">
<!-- Creator: CorelDRAW X7 -->
<svg xmlns="http://www.w3.org/2000/svg" xml:space="preserve" width="8.1278mm" height="8.1278mm" version="1.1" style="shape-rendering:geometricPrecision; text-rendering:geometricPrecision; image-rendering:optimizeQuality; fill-rule:evenodd; clip-rule:evenodd"
viewBox="0 0 813 813"
 xmlns:xlink="http://www.w3.org/1999/xlink">
 <defs>
  <style type="text/css">
   <![CDATA[
    .fil0 {fill:#6A35BF}
    .fil1 {fill:#FEFEFE;fill-rule:nonzero}
   ]]>
  </style>
 </defs>
 <g id="Layer_x0020_1">
  <metadata id="CorelCorpID_0Corel-Layer"/>
  <g id="_1077689488">
   <rect class="fil0" width="813" height="813" rx="119" ry="119"/>
   <path class="fil1" d="M382 384l-19 74 -16 59 1 0 -23 85c-12,47 -59,74 -106,62 -46,-12 -74,-60 -62,-106l11 -41 15 -59 43 -161 5 -19 8 -30c2,-11 7,-21 12,-31l0 0c3,-6 7,-11 11,-16l0 0 0 -1c3,-4 6,-8 10,-11l0 -1 1 0 1 -1 0 0 0 -1 1 0 0 0c0,-1 1,-1 1,-1l0 0c17,-17 38,-29 61,-35 13,-3 27,-5 40,-4l96 0 65 0c38,0 73,15 97,40 9,9 17,20 24,31l-121 0 -65 0 -97 0 0 0 0 0 -5 0 -3 0c-11,0 -21,4 -30,9 -15,9 -26,23 -31,40l-3 12 -5 19 -42 161 -16 59 0 0 -15 59c-2,8 3,17 11,19 9,3 17,-2 20,-11l17 -67 0 0 16 -59 0 0 19 -74c14,-53 27,-71 92,-71l40 0 15 0 40 0 24 0c38,0 73,16 98,41 9,9 16,19 23,30l-121 0 -24 0 -40 0 -15 0 -40 0 -19 0z"/>
  </g>
 </g>
</svg>
