<?xml version="1.0" encoding="UTF-8"?>
<!DOCTYPE svg PUBLIC "-//W3C//DTD SVG 1.1//EN" "http://www.w3.org/Graphics/SVG/1.1/DTD/svg11.dtd">
<!-- Creator: CorelDRAW X7 -->
<svg xmlns="http://www.w3.org/2000/svg" xml:space="preserve" width="21.6746mm" height="9.3978mm" version="1.1" style="shape-rendering:geometricPrecision; text-rendering:geometricPrecision; image-rendering:optimizeQuality; fill-rule:evenodd; clip-rule:evenodd"
viewBox="0 0 2167 940"
 xmlns:xlink="http://www.w3.org/1999/xlink">
 <defs>
  <style type="text/css">
   <![CDATA[
    .fil0 {fill:#FEFEFE;fill-rule:nonzero}
   ]]>
  </style>
 </defs>
 <g id="Layer_x0020_1">
  <metadata id="CorelCorpID_0Corel-Layer"/>
  <g id="_862950480">
   <path class="fil0" d="M414 430l-35 134 -28 107 0 0 -40 153c-22,85 -108,135 -192,113 -85,-22 -135,-109 -113,-193l20 -73 28 -107 77 -293 9 -34 14 -53c5,-21 13,-40 23,-58l0 0c5,-10 12,-19 18,-28l1 -1 1 -1c5,-7 11,-14 17,-20l1 -1 1 -1 1 -1 0 -1 1 -1 1 0 1 -1c0,-1 1,-1 2,-2l0 0c30,-29 68,-51 111,-62 23,-6 48,-9 72,-8l173 0 119 0c68,0 131,28 176,73 16,17 30,35 42,55l-218 0 -119 0 -176 0 0 0 0 0 -7 0 -7 0c-19,2 -38,7 -54,17 -27,16 -48,41 -56,73l-5 21 -9 34 -77 293 -29 107 1 0 -28 106c-4,15 5,31 20,35 16,4 31,-5 35,-20l32 -121 0 0 28 -107 0 0 36 -134c25,-96 49,-129 166,-129l72 0 28 0 72 0 44 0c69,0 131,28 176,74 17,16 31,34 42,55l-218 0 -44 0 -72 0 -28 0 -72 0 -34 0z"/>
   <path class="fil0" d="M2031 417l-32 0 9 -39 33 0 14 -58 54 -19 -19 77 76 0 -9 39 -76 0 -34 138c-6,23 -6,40 0,50 5,10 17,15 34,15 13,0 27,-4 42,-10l-4 43c-21,5 -44,8 -69,8 -22,0 -38,-8 -50,-25 -11,-16 -13,-37 -7,-61l38 -158z"/>
   <path class="fil0" d="M1719 640l-30 124 -49 0 94 -386 49 0 -5 23c23,-19 48,-28 74,-28 39,0 67,12 83,37 16,24 18,60 7,107 -11,43 -30,77 -59,104 -28,27 -64,40 -105,40 -12,0 -24,-2 -37,-6 -12,-4 -19,-9 -22,-15zm50 -202l-40 162c2,4 7,9 16,13 9,4 19,7 28,7 61,0 100,-35 117,-104 9,-35 8,-61 -3,-77 -10,-17 -32,-25 -64,-25 -6,0 -15,3 -27,7 -11,5 -20,11 -27,17z"/>
   <polygon class="fil0" points="1543,656 1601,419 1563,419 1573,378 1661,378 1593,656 "/>
   <path class="fil0" d="M1664 273c8,0 15,3 20,9 4,6 5,13 3,21 -2,9 -7,16 -14,22 -7,6 -15,9 -24,9 -8,0 -15,-3 -19,-9 -5,-6 -6,-13 -4,-22 2,-8 7,-15 14,-21 8,-6 16,-9 24,-9z"/>
   <path class="fil0" d="M1395 577l76 -312 49 0 -74 304c-4,15 -2,26 4,35 7,9 17,13 30,13l-10 44c-64,0 -89,-28 -75,-84z"/>
   <path class="fil0" d="M1403 308c-9,-3 -18,-5 -26,-5 -15,0 -29,6 -42,17 -12,12 -21,26 -25,44 -1,4 -2,9 -2,14l56 0 -10 41 -56 0 -58 237 -49 0 58 -237 -41 0 10 -41 41 0c8,-35 24,-63 46,-83 23,-20 48,-30 77,-30 14,0 29,2 44,7l-23 36z"/>
  </g>
 </g>
</svg>
