<?xml version="1.0" encoding="UTF-8"?>
<!DOCTYPE svg PUBLIC "-//W3C//DTD SVG 1.1//EN" "http://www.w3.org/Graphics/SVG/1.1/DTD/svg11.dtd">
<!-- Creator: CorelDRAW X7 -->
<svg xmlns="http://www.w3.org/2000/svg" xml:space="preserve" width="86.6986mm" height="37.7612mm" version="1.1" style="shape-rendering:geometricPrecision; text-rendering:geometricPrecision; image-rendering:optimizeQuality; fill-rule:evenodd; clip-rule:evenodd"
viewBox="0 0 8670 3776"
 xmlns:xlink="http://www.w3.org/1999/xlink">
 <defs>
  <style type="text/css">
   <![CDATA[
    .fil0 {fill:#1D1819;fill-rule:nonzero}
   ]]>
  </style>
 </defs>
 <g id="Layer_x0020_1">
  <metadata id="CorelCorpID_0Corel-Layer"/>
  <g id="_959551712">
   <path class="fil0" d="M1655 1728l-141 537 -113 428 1 0 -162 615c-88,336 -433,538 -770,449 -336,-88 -538,-433 -449,-770l77 -294 113 -428 308 -1174 36 -136 56 -212c22,-82 53,-159 92,-230l0 0c22,-40 47,-79 75,-115l1 -2 6 -7c21,-27 43,-53 67,-78l3 -4 4 -4 6 -6 1 -1 4 -4 3 -3 2 -2c3,-3 5,-5 8,-7l0 -1c122,-118 275,-205 445,-249 94,-24 192,-35 291,-31l690 0 476 0c275,0 525,112 705,293 66,65 122,140 168,221l-873 0 -476 0 -704 0 0 0 0 0 -30 0 -24 0c-78,4 -152,28 -218,66 -107,63 -191,166 -225,294l-21 82 -36 136 -308 1174 -113 428 1 0 -112 425c-16,62 21,125 82,141 62,16 125,-21 141,-82l128 -484 -1 0 113 -428 0 0 141 -537c101,-385 198,-515 667,-515l288 0 110 0 289 0 178 0c275,0 524,113 705,293 66,66 122,140 167,222l-872 0 -178 0 -289 0 -110 0 -288 0 -135 0z"/>
   <path class="fil0" d="M8129 1676l-130 0 38 -156 129 0 57 -232 216 -76 -75 308 306 0 -38 156 -306 0 -135 552c-22,94 -23,160 -1,200 22,39 68,59 138,59 51,0 107,-13 167,-38l-13 173c-87,21 -179,31 -277,31 -89,0 -155,-33 -200,-98 -44,-66 -55,-148 -30,-248l154 -631z"/>
   <path class="fil0" d="M6879 2571l-121 496 -198 0 378 -1547 197 0 -22 92c93,-75 192,-113 298,-113 158,0 269,49 333,148 64,98 73,242 26,432 -41,168 -119,307 -233,413 -115,107 -256,161 -424,161 -47,0 -95,-8 -144,-25 -50,-17 -80,-36 -90,-57zm198 -812l-158 649c8,19 29,37 66,54 36,17 72,25 110,25 245,0 401,-138 469,-416 34,-140 30,-243 -12,-308 -42,-65 -127,-98 -255,-98 -28,0 -64,10 -109,29 -45,19 -82,41 -111,65z"/>
   <polygon class="fil0" points="6176,2632 6406,1686 6253,1686 6294,1520 6644,1520 6373,2632 "/>
   <path class="fil0" d="M6658 1100c34,0 60,12 79,36 17,24 22,52 14,85 -8,34 -27,63 -57,87 -29,24 -61,36 -95,36 -33,0 -59,-12 -77,-36 -18,-24 -23,-53 -15,-87 8,-33 27,-62 56,-86 30,-24 62,-35 95,-35z"/>
   <path class="fil0" d="M5579 2318l306 -1252 197 0 -297 1219c-14,59 -9,106 17,140 26,35 66,52 121,52l-43 176c-255,0 -355,-112 -301,-335z"/>
   <path class="fil0" d="M5615 1242c-37,-14 -73,-21 -107,-21 -61,0 -116,23 -167,68 -50,46 -83,104 -101,173 -4,19 -7,38 -7,58l225 0 -41 166 -225 0 -230 946 -198 0 231 -946 -162 0 41 -166 161 0c35,-141 97,-252 187,-333 89,-81 192,-121 306,-121 58,0 117,10 178,31l-91 145z"/>
  </g>
 </g>
</svg>
