<?xml version="1.0" encoding="UTF-8"?>
<!DOCTYPE svg PUBLIC "-//W3C//DTD SVG 1.1//EN" "http://www.w3.org/Graphics/SVG/1.1/DTD/svg11.dtd">
<!-- Creator: CorelDRAW X7 -->
<svg xmlns="http://www.w3.org/2000/svg" xml:space="preserve" width="43.3492mm" height="18.8806mm" version="1.1" style="shape-rendering:geometricPrecision; text-rendering:geometricPrecision; image-rendering:optimizeQuality; fill-rule:evenodd; clip-rule:evenodd"
viewBox="0 0 4335 1888"
 xmlns:xlink="http://www.w3.org/1999/xlink">
 <defs>
  <style type="text/css">
   <![CDATA[
    .fil0 {fill:#6A35BF;fill-rule:nonzero}
   ]]>
  </style>
 </defs>
 <g id="Layer_x0020_1">
  <metadata id="CorelCorpID_0Corel-Layer"/>
  <g id="_967161600">
   <path class="fil0" d="M828 864l-70 268 -57 214 1 0 -81 307c-44,169 -217,269 -385,225 -168,-44 -269,-216 -224,-385l38 -147 57 -214 154 -586 18 -68 28 -106c10,-41 26,-80 46,-115l-1 0c12,-20 24,-39 38,-58l1 -1 2 -3c11,-14 22,-27 34,-39l1 -2 3 -2 2 -3 1 -1 2 -2 1 -1 2 -1c1,-1 2,-3 3,-4l0 0c62,-59 138,-103 223,-125 47,-12 95,-17 145,-15l345 0 238 0c137,0 262,56 352,146 33,33 61,70 84,111l-436 0 -238 0 -352 0 0 0 0 0 -15 0 -12 0c-39,2 -76,14 -109,33 -53,31 -95,83 -112,147l-11 41 -18 68 -154 586 -56 214 0 0 -55 213c-9,31 10,62 41,70 30,8 62,-10 70,-41l64 -242 0 0 56 -214 0 0 70 -268c51,-192 99,-257 334,-257l144 0 54 0 145 0 89 0c137,0 262,56 352,146 33,33 61,70 84,111l-436 0 -89 0 -145 0 -54 0 -144 0 -68 0z"/>
   <path class="fil0" d="M4063 838l-64 0 18 -78 65 0 29 -116 107 -38 -37 154 153 0 -19 78 -153 0 -67 276c-12,47 -12,80 -1,100 11,20 34,29 69,29 25,0 53,-6 84,-19l-7 87c-43,10 -90,15 -139,15 -44,0 -77,-16 -99,-49 -23,-33 -28,-74 -16,-124l77 -315z"/>
   <path class="fil0" d="M3439 1285l-61 248 -98 0 188 -773 99 0 -11 46c46,-38 96,-56 149,-56 79,0 134,24 166,73 32,50 36,122 13,216 -20,85 -59,154 -116,207 -58,54 -128,80 -212,80 -24,0 -48,-4 -72,-12 -25,-8 -40,-18 -45,-29zm99 -405l-79 324c4,9 15,18 33,27 18,8 36,12 55,12 122,0 200,-69 234,-207 17,-71 15,-122 -6,-155 -21,-32 -63,-48 -127,-48 -14,0 -32,4 -55,14 -22,10 -41,21 -55,33z"/>
   <polygon class="fil0" points="3087,1316 3203,843 3126,843 3146,760 3322,760 3186,1316 "/>
   <path class="fil0" d="M3329 550c16,0 30,6 39,18 9,12 11,26 7,43 -4,17 -14,31 -28,43 -15,12 -31,18 -48,18 -17,0 -30,-6 -39,-18 -9,-12 -11,-26 -7,-43 4,-17 13,-32 28,-43 15,-12 31,-18 48,-18z"/>
   <path class="fil0" d="M2789 1159l153 -626 99 0 -149 609c-7,30 -4,53 9,70 13,18 33,26 60,26l-21 88c-128,0 -178,-55 -151,-167z"/>
   <path class="fil0" d="M2807 621c-18,-7 -36,-10 -53,-10 -31,0 -58,11 -84,34 -25,23 -41,51 -50,86 -2,10 -4,19 -4,29l113 0 -21 83 -112 0 -115 473 -99 0 115 -473 -81 0 21 -83 81 0c17,-70 48,-126 93,-166 44,-41 96,-61 153,-61 29,0 58,5 88,16l-45 72z"/>
  </g>
 </g>
</svg>
