<?xml version="1.0" encoding="UTF-8" standalone="no"?>
<!DOCTYPE svg PUBLIC "-//W3C//DTD SVG 1.1//EN"
 "http://www.w3.org/Graphics/SVG/1.1/DTD/svg11.dtd">
<!-- Generated by graphviz version 2.40.1 (0)
 -->
<!-- Title: SchemaCrawler_Diagram Pages: 1 -->
<svg width="949pt" height="579pt"
 viewBox="0.00 0.00 949.00 578.50" xmlns="http://www.w3.org/2000/svg" xmlns:xlink="http://www.w3.org/1999/xlink">
<g id="graph0" class="graph" transform="scale(1 1) rotate(0) translate(4 574.5)">
<title>SchemaCrawler_Diagram</title>
<polygon fill="#ffffff" stroke="transparent" points="-4,4 -4,-574.5 945,-574.5 945,4 -4,4"/>
<text text-anchor="start" x="702" y="-29.8" font-family="Helvetica,sans-Serif" font-size="14.00" fill="#000000">generated by</text>
<text text-anchor="start" x="787" y="-29.8" font-family="Helvetica,sans-Serif" font-size="14.00" fill="#000000">SchemaCrawler 16.1.2</text>
<text text-anchor="start" x="702" y="-10.8" font-family="Helvetica,sans-Serif" font-size="14.00" fill="#000000">generated on</text>
<text text-anchor="start" x="787" y="-10.8" font-family="Helvetica,sans-Serif" font-size="14.00" fill="#000000">2019&#45;09&#45;29 15:12:46</text>
<polygon fill="none" stroke="#888888" points="699,-4 699,-44 933,-44 933,-4 699,-4"/>
<!-- constraints_a03c1a95 -->
<g id="node1" class="node">
<title>constraints_a03c1a95</title>
<polygon fill="#f2e9ce" stroke="transparent" points="328,-546 328,-565 422,-565 422,-546 328,-546"/>
<text text-anchor="start" x="330" y="-552.8" font-family="Helvetica,sans-Serif" font-weight="bold" font-style="italic" font-size="14.00" fill="#000000">constraints</text>
<polygon fill="#f2e9ce" stroke="transparent" points="422,-546 422,-565 604,-565 604,-546 422,-546"/>
<text text-anchor="start" x="564" y="-551.8" font-family="Helvetica,sans-Serif" font-size="14.00" fill="#000000">[table]</text>
<text text-anchor="start" x="330" y="-533.8" font-family="Helvetica,sans-Serif" font-weight="bold" font-style="italic" font-size="14.00" fill="#000000">id</text>
<text text-anchor="start" x="416" y="-532.8" font-family="Helvetica,sans-Serif" font-size="14.00" fill="#000000"> </text>
<text text-anchor="start" x="424" y="-532.8" font-family="Helvetica,sans-Serif" font-size="14.00" fill="#000000">VARCHAR(255) NOT NULL</text>
<text text-anchor="start" x="330" y="-513.8" font-family="Helvetica,sans-Serif" font-size="14.00" fill="#000000">segment_key</text>
<text text-anchor="start" x="416" y="-513.8" font-family="Helvetica,sans-Serif" font-size="14.00" fill="#000000"> </text>
<text text-anchor="start" x="424" y="-513.8" font-family="Helvetica,sans-Serif" font-size="14.00" fill="#000000">VARCHAR(255) NOT NULL</text>
<text text-anchor="start" x="330" y="-494.8" font-family="Helvetica,sans-Serif" font-size="14.00" fill="#000000">type</text>
<text text-anchor="start" x="416" y="-494.8" font-family="Helvetica,sans-Serif" font-size="14.00" fill="#000000"> </text>
<text text-anchor="start" x="424" y="-494.8" font-family="Helvetica,sans-Serif" font-size="14.00" fill="#000000">INTEGER NOT NULL</text>
<text text-anchor="start" x="330" y="-475.8" font-family="Helvetica,sans-Serif" font-size="14.00" fill="#000000">property</text>
<text text-anchor="start" x="416" y="-475.8" font-family="Helvetica,sans-Serif" font-size="14.00" fill="#000000"> </text>
<text text-anchor="start" x="424" y="-475.8" font-family="Helvetica,sans-Serif" font-size="14.00" fill="#000000">VARCHAR(255) NOT NULL</text>
<text text-anchor="start" x="330" y="-456.8" font-family="Helvetica,sans-Serif" font-size="14.00" fill="#000000">operator</text>
<text text-anchor="start" x="416" y="-456.8" font-family="Helvetica,sans-Serif" font-size="14.00" fill="#000000"> </text>
<text text-anchor="start" x="424" y="-456.8" font-family="Helvetica,sans-Serif" font-size="14.00" fill="#000000">VARCHAR(255) NOT NULL</text>
<text text-anchor="start" x="330" y="-437.8" font-family="Helvetica,sans-Serif" font-size="14.00" fill="#000000">&quot;value&quot;</text>
<text text-anchor="start" x="416" y="-437.8" font-family="Helvetica,sans-Serif" font-size="14.00" fill="#000000"> </text>
<text text-anchor="start" x="424" y="-437.8" font-family="Helvetica,sans-Serif" font-size="14.00" fill="#000000">TEXT NOT NULL</text>
<text text-anchor="start" x="330" y="-418.8" font-family="Helvetica,sans-Serif" font-size="14.00" fill="#000000">created_at</text>
<text text-anchor="start" x="416" y="-418.8" font-family="Helvetica,sans-Serif" font-size="14.00" fill="#000000"> </text>
<text text-anchor="start" x="424" y="-418.8" font-family="Helvetica,sans-Serif" font-size="14.00" fill="#000000">TIMESTAMP NOT NULL</text>
<text text-anchor="start" x="330" y="-399.8" font-family="Helvetica,sans-Serif" font-size="14.00" fill="#000000">updated_at</text>
<text text-anchor="start" x="416" y="-399.8" font-family="Helvetica,sans-Serif" font-size="14.00" fill="#000000"> </text>
<text text-anchor="start" x="424" y="-399.8" font-family="Helvetica,sans-Serif" font-size="14.00" fill="#000000">TIMESTAMP NOT NULL</text>
<polygon fill="none" stroke="#888888" points="327,-393.5 327,-566.5 605,-566.5 605,-393.5 327,-393.5"/>
</g>
<!-- segments_3eefbbff -->
<g id="node7" class="node">
<title>segments_3eefbbff</title>
<polygon fill="#f2e9ce" stroke="transparent" points="9.5,-458 9.5,-477 92.5,-477 92.5,-458 9.5,-458"/>
<text text-anchor="start" x="11.5" y="-464.8" font-family="Helvetica,sans-Serif" font-weight="bold" font-style="italic" font-size="14.00" fill="#000000">segments</text>
<polygon fill="#f2e9ce" stroke="transparent" points="92.5,-458 92.5,-477 274.5,-477 274.5,-458 92.5,-458"/>
<text text-anchor="start" x="234.5" y="-463.8" font-family="Helvetica,sans-Serif" font-size="14.00" fill="#000000">[table]</text>
<text text-anchor="start" x="11.5" y="-445.8" font-family="Helvetica,sans-Serif" font-weight="bold" font-style="italic" font-size="14.00" fill="#000000">key</text>
<text text-anchor="start" x="86.5" y="-444.8" font-family="Helvetica,sans-Serif" font-size="14.00" fill="#000000"> </text>
<text text-anchor="start" x="94.5" y="-444.8" font-family="Helvetica,sans-Serif" font-size="14.00" fill="#000000">VARCHAR(255) NOT NULL</text>
<text text-anchor="start" x="11.5" y="-425.8" font-family="Helvetica,sans-Serif" font-size="14.00" fill="#000000">name</text>
<text text-anchor="start" x="86.5" y="-425.8" font-family="Helvetica,sans-Serif" font-size="14.00" fill="#000000"> </text>
<text text-anchor="start" x="94.5" y="-425.8" font-family="Helvetica,sans-Serif" font-size="14.00" fill="#000000">VARCHAR(255) NOT NULL</text>
<text text-anchor="start" x="11.5" y="-406.8" font-family="Helvetica,sans-Serif" font-size="14.00" fill="#000000">description</text>
<text text-anchor="start" x="86.5" y="-406.8" font-family="Helvetica,sans-Serif" font-size="14.00" fill="#000000"> </text>
<text text-anchor="start" x="94.5" y="-406.8" font-family="Helvetica,sans-Serif" font-size="14.00" fill="#000000">TEXT NOT NULL</text>
<text text-anchor="start" x="11.5" y="-387.8" font-family="Helvetica,sans-Serif" font-size="14.00" fill="#000000">created_at</text>
<text text-anchor="start" x="86.5" y="-387.8" font-family="Helvetica,sans-Serif" font-size="14.00" fill="#000000"> </text>
<text text-anchor="start" x="94.5" y="-387.8" font-family="Helvetica,sans-Serif" font-size="14.00" fill="#000000">TIMESTAMP NOT NULL</text>
<text text-anchor="start" x="11.5" y="-368.8" font-family="Helvetica,sans-Serif" font-size="14.00" fill="#000000">updated_at</text>
<text text-anchor="start" x="86.5" y="-368.8" font-family="Helvetica,sans-Serif" font-size="14.00" fill="#000000"> </text>
<text text-anchor="start" x="94.5" y="-368.8" font-family="Helvetica,sans-Serif" font-size="14.00" fill="#000000">TIMESTAMP NOT NULL</text>
<polygon fill="none" stroke="#888888" points="8,-362 8,-478 275,-478 275,-362 8,-362"/>
</g>
<!-- constraints_a03c1a95&#45;&gt;segments_3eefbbff -->
<g id="edge4" class="edge">
<title>constraints_a03c1a95:w&#45;&gt;segments_3eefbbff:e</title>
<path fill="none" stroke="#000000" d="M311.304,-510.8757C298.1793,-495.45 303.636,-459.6457 284.3879,-450.9356"/>
<polygon fill="#000000" stroke="#000000" points="318.8024,-514.0753 326.2339,-522.1389 323.4012,-516.0376 328,-518 328,-518 328,-518 323.4012,-516.0376 329.7661,-513.8611 318.8024,-514.0753 318.8024,-514.0753"/>
<ellipse fill="none" stroke="#000000" cx="315.1233" cy="-512.5054" rx="4" ry="4"/>
<polygon fill="#000000" stroke="#000000" points="274.5208,-454.099 276.442,-444.2853 278.4047,-444.6695 276.4835,-454.4832 274.5208,-454.099"/>
<polyline fill="none" stroke="#000000" points="274.5,-449 279.4069,-449.9606 "/>
<polygon fill="#000000" stroke="#000000" points="279.4276,-455.0596 281.3488,-445.2459 283.3116,-445.6301 281.3904,-455.4438 279.4276,-455.0596"/>
<polyline fill="none" stroke="#000000" points="279.4069,-449.9606 284.3137,-450.9212 "/>
</g>
<!-- distributions_9741f6ce -->
<g id="node2" class="node">
<title>distributions_9741f6ce</title>
<polygon fill="#f2e9ce" stroke="transparent" points="658,-295 658,-314 750,-314 750,-295 658,-295"/>
<text text-anchor="start" x="660" y="-301.8" font-family="Helvetica,sans-Serif" font-weight="bold" font-style="italic" font-size="14.00" fill="#000000">distributions</text>
<polygon fill="#f2e9ce" stroke="transparent" points="750,-295 750,-314 932,-314 932,-295 750,-295"/>
<text text-anchor="start" x="892" y="-300.8" font-family="Helvetica,sans-Serif" font-size="14.00" fill="#000000">[table]</text>
<text text-anchor="start" x="660" y="-282.8" font-family="Helvetica,sans-Serif" font-weight="bold" font-style="italic" font-size="14.00" fill="#000000">id</text>
<text text-anchor="start" x="739" y="-281.8" font-family="Helvetica,sans-Serif" font-size="14.00" fill="#000000"> </text>
<text text-anchor="start" x="752" y="-281.8" font-family="Helvetica,sans-Serif" font-size="14.00" fill="#000000">VARCHAR(255) NOT NULL</text>
<text text-anchor="start" x="660" y="-262.8" font-family="Helvetica,sans-Serif" font-size="14.00" fill="#000000">rule_id</text>
<text text-anchor="start" x="739" y="-262.8" font-family="Helvetica,sans-Serif" font-size="14.00" fill="#000000"> </text>
<text text-anchor="start" x="752" y="-262.8" font-family="Helvetica,sans-Serif" font-size="14.00" fill="#000000">VARCHAR(255) NOT NULL</text>
<text text-anchor="start" x="660" y="-243.8" font-family="Helvetica,sans-Serif" font-size="14.00" fill="#000000">variant_id</text>
<text text-anchor="start" x="739" y="-243.8" font-family="Helvetica,sans-Serif" font-size="14.00" fill="#000000"> </text>
<text text-anchor="start" x="752" y="-243.8" font-family="Helvetica,sans-Serif" font-size="14.00" fill="#000000">VARCHAR(255) NOT NULL</text>
<text text-anchor="start" x="660" y="-224.8" font-family="Helvetica,sans-Serif" font-size="14.00" fill="#000000">rollout</text>
<text text-anchor="start" x="739" y="-224.8" font-family="Helvetica,sans-Serif" font-size="14.00" fill="#000000"> </text>
<text text-anchor="start" x="752" y="-224.8" font-family="Helvetica,sans-Serif" font-size="14.00" fill="#000000">FLOAT NOT NULL</text>
<text text-anchor="start" x="660" y="-205.8" font-family="Helvetica,sans-Serif" font-size="14.00" fill="#000000">created_at</text>
<text text-anchor="start" x="739" y="-205.8" font-family="Helvetica,sans-Serif" font-size="14.00" fill="#000000"> </text>
<text text-anchor="start" x="752" y="-205.8" font-family="Helvetica,sans-Serif" font-size="14.00" fill="#000000">TIMESTAMP NOT NULL</text>
<text text-anchor="start" x="660" y="-186.8" font-family="Helvetica,sans-Serif" font-size="14.00" fill="#000000">updated_at</text>
<text text-anchor="start" x="739" y="-186.8" font-family="Helvetica,sans-Serif" font-size="14.00" fill="#000000"> </text>
<text text-anchor="start" x="752" y="-186.8" font-family="Helvetica,sans-Serif" font-size="14.00" fill="#000000">TIMESTAMP NOT NULL</text>
<polygon fill="none" stroke="#888888" points="657,-180.5 657,-315.5 933,-315.5 933,-180.5 657,-180.5"/>
</g>
<!-- rules_67dbd56 -->
<g id="node4" class="node">
<title>rules_67dbd56</title>
<polygon fill="#f2e9ce" stroke="transparent" points="328,-347 328,-366 422,-366 422,-347 328,-347"/>
<text text-anchor="start" x="330" y="-353.8" font-family="Helvetica,sans-Serif" font-weight="bold" font-style="italic" font-size="14.00" fill="#000000">rules</text>
<polygon fill="#f2e9ce" stroke="transparent" points="422,-347 422,-366 604,-366 604,-347 422,-347"/>
<text text-anchor="start" x="564" y="-352.8" font-family="Helvetica,sans-Serif" font-size="14.00" fill="#000000">[table]</text>
<text text-anchor="start" x="330" y="-334.8" font-family="Helvetica,sans-Serif" font-weight="bold" font-style="italic" font-size="14.00" fill="#000000">id</text>
<text text-anchor="start" x="416" y="-333.8" font-family="Helvetica,sans-Serif" font-size="14.00" fill="#000000"> </text>
<text text-anchor="start" x="424" y="-333.8" font-family="Helvetica,sans-Serif" font-size="14.00" fill="#000000">VARCHAR(255) NOT NULL</text>
<text text-anchor="start" x="330" y="-314.8" font-family="Helvetica,sans-Serif" font-size="14.00" fill="#000000">flag_key</text>
<text text-anchor="start" x="416" y="-314.8" font-family="Helvetica,sans-Serif" font-size="14.00" fill="#000000"> </text>
<text text-anchor="start" x="424" y="-314.8" font-family="Helvetica,sans-Serif" font-size="14.00" fill="#000000">VARCHAR(255) NOT NULL</text>
<text text-anchor="start" x="330" y="-295.8" font-family="Helvetica,sans-Serif" font-size="14.00" fill="#000000">segment_key</text>
<text text-anchor="start" x="416" y="-295.8" font-family="Helvetica,sans-Serif" font-size="14.00" fill="#000000"> </text>
<text text-anchor="start" x="424" y="-295.8" font-family="Helvetica,sans-Serif" font-size="14.00" fill="#000000">VARCHAR(255) NOT NULL</text>
<text text-anchor="start" x="330" y="-276.8" font-family="Helvetica,sans-Serif" font-size="14.00" fill="#000000">rank</text>
<text text-anchor="start" x="416" y="-276.8" font-family="Helvetica,sans-Serif" font-size="14.00" fill="#000000"> </text>
<text text-anchor="start" x="424" y="-276.8" font-family="Helvetica,sans-Serif" font-size="14.00" fill="#000000">INTEGER NOT NULL</text>
<text text-anchor="start" x="330" y="-257.8" font-family="Helvetica,sans-Serif" font-size="14.00" fill="#000000">created_at</text>
<text text-anchor="start" x="416" y="-257.8" font-family="Helvetica,sans-Serif" font-size="14.00" fill="#000000"> </text>
<text text-anchor="start" x="424" y="-257.8" font-family="Helvetica,sans-Serif" font-size="14.00" fill="#000000">TIMESTAMP NOT NULL</text>
<text text-anchor="start" x="330" y="-238.8" font-family="Helvetica,sans-Serif" font-size="14.00" fill="#000000">updated_at</text>
<text text-anchor="start" x="416" y="-238.8" font-family="Helvetica,sans-Serif" font-size="14.00" fill="#000000"> </text>
<text text-anchor="start" x="424" y="-238.8" font-family="Helvetica,sans-Serif" font-size="14.00" fill="#000000">TIMESTAMP NOT NULL</text>
<polygon fill="none" stroke="#888888" points="327,-232.5 327,-367.5 605,-367.5 605,-232.5 327,-232.5"/>
</g>
<!-- distributions_9741f6ce&#45;&gt;rules_67dbd56 -->
<g id="edge3" class="edge">
<title>distributions_9741f6ce:w&#45;&gt;rules_67dbd56:e</title>
<path fill="none" stroke="#000000" d="M641.234,-274.0673C627.6309,-289.8513 633.8207,-327.2765 613.8599,-336.1089"/>
<polygon fill="#000000" stroke="#000000" points="648.7852,-270.8843 659.7479,-271.1467 653.3926,-268.9422 658,-267 658,-267 658,-267 653.3926,-268.9422 656.2521,-262.8533 648.7852,-270.8843 648.7852,-270.8843"/>
<ellipse fill="none" stroke="#000000" cx="645.0993" cy="-272.4381" rx="4" ry="4"/>
<polygon fill="#000000" stroke="#000000" points="605.9239,-342.7221 604.0403,-332.9011 606.0045,-332.5244 607.8881,-342.3454 605.9239,-342.7221"/>
<polyline fill="none" stroke="#000000" points="604,-338 608.9105,-337.0582 "/>
<polygon fill="#000000" stroke="#000000" points="610.8344,-341.7803 608.9508,-331.9593 610.915,-331.5825 612.7986,-341.4035 610.8344,-341.7803"/>
<polyline fill="none" stroke="#000000" points="608.9105,-337.0582 613.821,-336.1163 "/>
</g>
<!-- variants_b58574ed -->
<g id="node5" class="node">
<title>variants_b58574ed</title>
<polygon fill="#f2e9ce" stroke="transparent" points="334,-186 334,-205 417,-205 417,-186 334,-186"/>
<text text-anchor="start" x="336" y="-192.8" font-family="Helvetica,sans-Serif" font-weight="bold" font-style="italic" font-size="14.00" fill="#000000">variants</text>
<polygon fill="#f2e9ce" stroke="transparent" points="417,-186 417,-205 599,-205 599,-186 417,-186"/>
<text text-anchor="start" x="559" y="-191.8" font-family="Helvetica,sans-Serif" font-size="14.00" fill="#000000">[table]</text>
<text text-anchor="start" x="336" y="-173.8" font-family="Helvetica,sans-Serif" font-weight="bold" font-style="italic" font-size="14.00" fill="#000000">id</text>
<text text-anchor="start" x="411" y="-172.8" font-family="Helvetica,sans-Serif" font-size="14.00" fill="#000000"> </text>
<text text-anchor="start" x="419" y="-172.8" font-family="Helvetica,sans-Serif" font-size="14.00" fill="#000000">VARCHAR(255) NOT NULL</text>
<text text-anchor="start" x="336" y="-153.8" font-family="Helvetica,sans-Serif" font-size="14.00" fill="#000000">flag_key</text>
<text text-anchor="start" x="411" y="-153.8" font-family="Helvetica,sans-Serif" font-size="14.00" fill="#000000"> </text>
<text text-anchor="start" x="419" y="-153.8" font-family="Helvetica,sans-Serif" font-size="14.00" fill="#000000">VARCHAR(255) NOT NULL</text>
<text text-anchor="start" x="336" y="-134.8" font-family="Helvetica,sans-Serif" font-size="14.00" fill="#000000">key</text>
<text text-anchor="start" x="411" y="-134.8" font-family="Helvetica,sans-Serif" font-size="14.00" fill="#000000"> </text>
<text text-anchor="start" x="419" y="-134.8" font-family="Helvetica,sans-Serif" font-size="14.00" fill="#000000">VARCHAR(255) NOT NULL</text>
<text text-anchor="start" x="336" y="-115.8" font-family="Helvetica,sans-Serif" font-size="14.00" fill="#000000">name</text>
<text text-anchor="start" x="411" y="-115.8" font-family="Helvetica,sans-Serif" font-size="14.00" fill="#000000"> </text>
<text text-anchor="start" x="419" y="-115.8" font-family="Helvetica,sans-Serif" font-size="14.00" fill="#000000">VARCHAR(255) NOT NULL</text>
<text text-anchor="start" x="336" y="-96.8" font-family="Helvetica,sans-Serif" font-size="14.00" fill="#000000">description</text>
<text text-anchor="start" x="411" y="-96.8" font-family="Helvetica,sans-Serif" font-size="14.00" fill="#000000"> </text>
<text text-anchor="start" x="419" y="-96.8" font-family="Helvetica,sans-Serif" font-size="14.00" fill="#000000">TEXT NOT NULL</text>
<text text-anchor="start" x="336" y="-77.8" font-family="Helvetica,sans-Serif" font-size="14.00" fill="#000000">created_at</text>
<text text-anchor="start" x="411" y="-77.8" font-family="Helvetica,sans-Serif" font-size="14.00" fill="#000000"> </text>
<text text-anchor="start" x="419" y="-77.8" font-family="Helvetica,sans-Serif" font-size="14.00" fill="#000000">TIMESTAMP NOT NULL</text>
<text text-anchor="start" x="336" y="-58.8" font-family="Helvetica,sans-Serif" font-size="14.00" fill="#000000">updated_at</text>
<text text-anchor="start" x="411" y="-58.8" font-family="Helvetica,sans-Serif" font-size="14.00" fill="#000000"> </text>
<text text-anchor="start" x="419" y="-58.8" font-family="Helvetica,sans-Serif" font-size="14.00" fill="#000000">TIMESTAMP NOT NULL</text>
<polygon fill="none" stroke="#888888" points="332.5,-52 332.5,-206 599.5,-206 599.5,-52 332.5,-52"/>
</g>
<!-- distributions_9741f6ce&#45;&gt;variants_b58574ed -->
<g id="edge6" class="edge">
<title>distributions_9741f6ce:w&#45;&gt;variants_b58574ed:e</title>
<path fill="none" stroke="#000000" d="M640.9329,-240.54C625.5305,-225.2417 630.407,-187.4341 609.016,-178.783"/>
<polygon fill="#000000" stroke="#000000" points="648.6475,-243.46 656.407,-251.2086 653.3238,-245.23 658,-247 658,-247 658,-247 653.3238,-245.23 659.593,-242.7914 648.6475,-243.46 648.6475,-243.46"/>
<ellipse fill="none" stroke="#000000" cx="644.9065" cy="-242.044" rx="4" ry="4"/>
<polygon fill="#000000" stroke="#000000" points="599.1082,-182.0979 600.8609,-172.2527 602.8299,-172.6032 601.0772,-182.4484 599.1082,-182.0979"/>
<polyline fill="none" stroke="#000000" points="599,-177 603.9226,-177.8763 "/>
<polygon fill="#000000" stroke="#000000" points="604.0308,-182.9742 605.7835,-173.129 607.7525,-173.4795 605.9998,-183.3247 604.0308,-182.9742"/>
<polyline fill="none" stroke="#000000" points="603.9226,-177.8763 608.8452,-178.7527 "/>
</g>
<!-- flags_5d062e6 -->
<g id="node3" class="node">
<title>flags_5d062e6</title>
<polygon fill="#f2e9ce" stroke="transparent" points="9.5,-247 9.5,-266 92.5,-266 92.5,-247 9.5,-247"/>
<text text-anchor="start" x="11.5" y="-253.8" font-family="Helvetica,sans-Serif" font-weight="bold" font-style="italic" font-size="14.00" fill="#000000">flags</text>
<polygon fill="#f2e9ce" stroke="transparent" points="92.5,-247 92.5,-266 274.5,-266 274.5,-247 92.5,-247"/>
<text text-anchor="start" x="234.5" y="-252.8" font-family="Helvetica,sans-Serif" font-size="14.00" fill="#000000">[table]</text>
<text text-anchor="start" x="11.5" y="-234.8" font-family="Helvetica,sans-Serif" font-weight="bold" font-style="italic" font-size="14.00" fill="#000000">key</text>
<text text-anchor="start" x="86.5" y="-233.8" font-family="Helvetica,sans-Serif" font-size="14.00" fill="#000000"> </text>
<text text-anchor="start" x="94.5" y="-233.8" font-family="Helvetica,sans-Serif" font-size="14.00" fill="#000000">VARCHAR(255) NOT NULL</text>
<text text-anchor="start" x="11.5" y="-214.8" font-family="Helvetica,sans-Serif" font-size="14.00" fill="#000000">name</text>
<text text-anchor="start" x="86.5" y="-214.8" font-family="Helvetica,sans-Serif" font-size="14.00" fill="#000000"> </text>
<text text-anchor="start" x="94.5" y="-214.8" font-family="Helvetica,sans-Serif" font-size="14.00" fill="#000000">VARCHAR(255) NOT NULL</text>
<text text-anchor="start" x="11.5" y="-195.8" font-family="Helvetica,sans-Serif" font-size="14.00" fill="#000000">description</text>
<text text-anchor="start" x="86.5" y="-195.8" font-family="Helvetica,sans-Serif" font-size="14.00" fill="#000000"> </text>
<text text-anchor="start" x="94.5" y="-195.8" font-family="Helvetica,sans-Serif" font-size="14.00" fill="#000000">TEXT NOT NULL</text>
<text text-anchor="start" x="11.5" y="-176.8" font-family="Helvetica,sans-Serif" font-size="14.00" fill="#000000">enabled</text>
<text text-anchor="start" x="86.5" y="-176.8" font-family="Helvetica,sans-Serif" font-size="14.00" fill="#000000"> </text>
<text text-anchor="start" x="94.5" y="-176.8" font-family="Helvetica,sans-Serif" font-size="14.00" fill="#000000">BOOLEAN NOT NULL</text>
<text text-anchor="start" x="11.5" y="-157.8" font-family="Helvetica,sans-Serif" font-size="14.00" fill="#000000">created_at</text>
<text text-anchor="start" x="86.5" y="-157.8" font-family="Helvetica,sans-Serif" font-size="14.00" fill="#000000"> </text>
<text text-anchor="start" x="94.5" y="-157.8" font-family="Helvetica,sans-Serif" font-size="14.00" fill="#000000">TIMESTAMP NOT NULL</text>
<text text-anchor="start" x="11.5" y="-138.8" font-family="Helvetica,sans-Serif" font-size="14.00" fill="#000000">updated_at</text>
<text text-anchor="start" x="86.5" y="-138.8" font-family="Helvetica,sans-Serif" font-size="14.00" fill="#000000"> </text>
<text text-anchor="start" x="94.5" y="-138.8" font-family="Helvetica,sans-Serif" font-size="14.00" fill="#000000">TIMESTAMP NOT NULL</text>
<polygon fill="none" stroke="#888888" points="8,-132.5 8,-267.5 275,-267.5 275,-132.5 8,-132.5"/>
</g>
<!-- rules_67dbd56&#45;&gt;flags_5d062e6 -->
<g id="edge1" class="edge">
<title>rules_67dbd56:w&#45;&gt;flags_5d062e6:e</title>
<path fill="none" stroke="#000000" d="M311.2167,-312.094C296.0502,-294.6484 306.8477,-249.5055 284.3887,-239.8391"/>
<polygon fill="#000000" stroke="#000000" points="318.7523,-315.1947 326.2876,-323.1615 323.3761,-317.0974 328,-319 328,-319 328,-319 323.3761,-317.0974 329.7124,-314.8385 318.7523,-315.1947 318.7523,-315.1947"/>
<ellipse fill="none" stroke="#000000" cx="315.0532" cy="-313.6726" rx="4" ry="4"/>
<polygon fill="#000000" stroke="#000000" points="274.5689,-243.0986 276.3974,-233.2671 278.3637,-233.6329 276.5351,-243.4643 274.5689,-243.0986"/>
<polyline fill="none" stroke="#000000" points="274.5,-238 279.4157,-238.9143 "/>
<polygon fill="#000000" stroke="#000000" points="279.4846,-244.0128 281.3131,-234.1814 283.2794,-234.5471 281.4509,-244.3786 279.4846,-244.0128"/>
<polyline fill="none" stroke="#000000" points="279.4157,-238.9143 284.3314,-239.8286 "/>
</g>
<!-- rules_67dbd56&#45;&gt;segments_3eefbbff -->
<g id="edge5" class="edge">
<title>rules_67dbd56:w&#45;&gt;segments_3eefbbff:e</title>
<path fill="none" stroke="#000000" d="M310.5327,-303.6537C276.2384,-327.4391 330.4585,-434.8126 284.6532,-447.7276"/>
<polygon fill="#000000" stroke="#000000" points="318.3371,-301.5745 329.1585,-303.3483 323.1685,-300.2872 328,-299 328,-299 328,-299 323.1685,-300.2872 326.8415,-294.6517 318.3371,-301.5745 318.3371,-301.5745"/>
<ellipse fill="none" stroke="#000000" cx="314.4719" cy="-302.6043" rx="4" ry="4"/>
<polygon fill="#000000" stroke="#000000" points="276.114,-453.8368 274.8705,-443.9145 276.8549,-443.6657 278.0985,-453.5881 276.114,-453.8368"/>
<polyline fill="none" stroke="#000000" points="274.5,-449 279.4612,-448.3782 "/>
<polygon fill="#000000" stroke="#000000" points="281.0752,-453.2151 279.8317,-443.2927 281.8161,-443.044 283.0597,-452.9664 281.0752,-453.2151"/>
<polyline fill="none" stroke="#000000" points="279.4612,-448.3782 284.4224,-447.7565 "/>
</g>
<!-- variants_b58574ed&#45;&gt;flags_5d062e6 -->
<g id="edge2" class="edge">
<title>variants_b58574ed:w&#45;&gt;flags_5d062e6:e</title>
<path fill="none" stroke="#000000" d="M316.9142,-164.2775C299.5746,-181.1477 308.6806,-226.8278 284.5279,-236.2758"/>
<polygon fill="#000000" stroke="#000000" points="324.6135,-161.4487 335.5519,-162.2239 329.3067,-159.7244 334,-158 334,-158 334,-158 329.3067,-159.7244 332.4481,-153.7761 324.6135,-161.4487 324.6135,-161.4487"/>
<ellipse fill="none" stroke="#000000" cx="320.8589" cy="-162.8282" rx="4" ry="4"/>
<polygon fill="#000000" stroke="#000000" points="276.3329,-242.7582 274.6382,-232.9028 276.6093,-232.5639 278.3039,-242.4193 276.3329,-242.7582"/>
<polyline fill="none" stroke="#000000" points="274.5,-238 279.4277,-237.1527 "/>
<polygon fill="#000000" stroke="#000000" points="281.2606,-241.9109 279.5659,-232.0555 281.537,-231.7166 283.2316,-241.572 281.2606,-241.9109"/>
<polyline fill="none" stroke="#000000" points="279.4277,-237.1527 284.3554,-236.3054 "/>
</g>
<!-- schema_migrations_a7e3bc22 -->
<g id="node6" class="node">
<title>schema_migrations_a7e3bc22</title>
<polygon fill="#f2e9ce" stroke="transparent" points="697,-380 697,-399 838,-399 838,-380 697,-380"/>
<text text-anchor="start" x="699" y="-386.8" font-family="Helvetica,sans-Serif" font-weight="bold" font-style="italic" font-size="14.00" fill="#000000">schema_migrations</text>
<polygon fill="#f2e9ce" stroke="transparent" points="838,-380 838,-399 893,-399 893,-380 838,-380"/>
<text text-anchor="start" x="853" y="-385.8" font-family="Helvetica,sans-Serif" font-size="14.00" fill="#000000">[table]</text>
<text text-anchor="start" x="699" y="-366.8" font-family="Helvetica,sans-Serif" font-size="14.00" fill="#000000">version</text>
<text text-anchor="start" x="789" y="-366.8" font-family="Helvetica,sans-Serif" font-size="14.00" fill="#000000"> </text>
<text text-anchor="start" x="840" y="-366.8" font-family="Helvetica,sans-Serif" font-size="14.00" fill="#000000">UINT64</text>
<text text-anchor="start" x="699" y="-347.8" font-family="Helvetica,sans-Serif" font-size="14.00" fill="#000000">dirty</text>
<text text-anchor="start" x="789" y="-347.8" font-family="Helvetica,sans-Serif" font-size="14.00" fill="#000000"> </text>
<text text-anchor="start" x="840" y="-347.8" font-family="Helvetica,sans-Serif" font-size="14.00" fill="#000000">BOOL</text>
<polygon fill="none" stroke="#888888" points="696,-341.5 696,-400.5 894,-400.5 894,-341.5 696,-341.5"/>
</g>
</g>
</svg>
