<svg xmlns="http://www.w3.org/2000/svg" xmlns:xlink="http://www.w3.org/1999/xlink" width="949pt" height="772" viewBox="0 0 949 578.5"><g id="graph0" class="graph" transform="scale(1 1) rotate(0) translate(4 574.5)"><title>SchemaCrawler_Diagram</title><polygon fill="#fff" stroke="transparent" points="-4 4 -4 -574.5 945 -574.5 945 4 -4 4"/><text x="702" y="-29.8" fill="#000" font-family="Helvetica,sans-Serif" font-size="14" text-anchor="start">generated by</text><text x="787" y="-29.8" fill="#000" font-family="Helvetica,sans-Serif" font-size="14" text-anchor="start">SchemaCrawler 16.1.2</text><text x="702" y="-10.8" fill="#000" font-family="Helvetica,sans-Serif" font-size="14" text-anchor="start">generated on</text><text x="787" y="-10.8" fill="#000" font-family="Helvetica,sans-Serif" font-size="14" text-anchor="start">2019-09-29 15:12:46</text><polygon fill="none" stroke="#888" points="699 -4 699 -44 933 -44 933 -4 699 -4"/><g id="node1" class="node"><title>constraints_a03c1a95</title><polygon fill="#f2e9ce" stroke="transparent" points="328 -546 328 -565 422 -565 422 -546 328 -546"/><text x="330" y="-552.8" fill="#000" font-family="Helvetica,sans-Serif" font-size="14" font-style="italic" font-weight="bold" text-anchor="start">constraints</text><polygon fill="#f2e9ce" stroke="transparent" points="422 -546 422 -565 604 -565 604 -546 422 -546"/><text x="564" y="-551.8" fill="#000" font-family="Helvetica,sans-Serif" font-size="14" text-anchor="start">[table]</text><text x="330" y="-533.8" fill="#000" font-family="Helvetica,sans-Serif" font-size="14" font-style="italic" font-weight="bold" text-anchor="start">id</text><text x="424" y="-532.8" fill="#000" font-family="Helvetica,sans-Serif" font-size="14" text-anchor="start">VARCHAR(255) NOT NULL</text><text x="330" y="-513.8" fill="#000" font-family="Helvetica,sans-Serif" font-size="14" text-anchor="start">segment_key</text><text x="424" y="-513.8" fill="#000" font-family="Helvetica,sans-Serif" font-size="14" text-anchor="start">VARCHAR(255) NOT NULL</text><text x="330" y="-494.8" fill="#000" font-family="Helvetica,sans-Serif" font-size="14" text-anchor="start">type</text><text x="424" y="-494.8" fill="#000" font-family="Helvetica,sans-Serif" font-size="14" text-anchor="start">INTEGER NOT NULL</text><text x="330" y="-475.8" fill="#000" font-family="Helvetica,sans-Serif" font-size="14" text-anchor="start">property</text><text x="424" y="-475.8" fill="#000" font-family="Helvetica,sans-Serif" font-size="14" text-anchor="start">VARCHAR(255) NOT NULL</text><text x="330" y="-456.8" fill="#000" font-family="Helvetica,sans-Serif" font-size="14" text-anchor="start">operator</text><text x="424" y="-456.8" fill="#000" font-family="Helvetica,sans-Serif" font-size="14" text-anchor="start">VARCHAR(255) NOT NULL</text><text x="330" y="-437.8" fill="#000" font-family="Helvetica,sans-Serif" font-size="14" text-anchor="start">&quot;value&quot;</text><text x="424" y="-437.8" fill="#000" font-family="Helvetica,sans-Serif" font-size="14" text-anchor="start">TEXT NOT NULL</text><text x="330" y="-418.8" fill="#000" font-family="Helvetica,sans-Serif" font-size="14" text-anchor="start">created_at</text><text x="424" y="-418.8" fill="#000" font-family="Helvetica,sans-Serif" font-size="14" text-anchor="start">TIMESTAMP NOT NULL</text><text x="330" y="-399.8" fill="#000" font-family="Helvetica,sans-Serif" font-size="14" text-anchor="start">updated_at</text><text x="424" y="-399.8" fill="#000" font-family="Helvetica,sans-Serif" font-size="14" text-anchor="start">TIMESTAMP NOT NULL</text><polygon fill="none" stroke="#888" points="327 -393.5 327 -566.5 605 -566.5 605 -393.5 327 -393.5"/></g><g id="node7" class="node"><title>segments_3eefbbff</title><polygon fill="#f2e9ce" stroke="transparent" points="9.5 -458 9.5 -477 92.5 -477 92.5 -458 9.5 -458"/><text x="11.5" y="-464.8" fill="#000" font-family="Helvetica,sans-Serif" font-size="14" font-style="italic" font-weight="bold" text-anchor="start">segments</text><polygon fill="#f2e9ce" stroke="transparent" points="92.5 -458 92.5 -477 274.5 -477 274.5 -458 92.5 -458"/><text x="234.5" y="-463.8" fill="#000" font-family="Helvetica,sans-Serif" font-size="14" text-anchor="start">[table]</text><text x="11.5" y="-445.8" fill="#000" font-family="Helvetica,sans-Serif" font-size="14" font-style="italic" font-weight="bold" text-anchor="start">key</text><text x="94.5" y="-444.8" fill="#000" font-family="Helvetica,sans-Serif" font-size="14" text-anchor="start">VARCHAR(255) NOT NULL</text><text x="11.5" y="-425.8" fill="#000" font-family="Helvetica,sans-Serif" font-size="14" text-anchor="start">name</text><text x="94.5" y="-425.8" fill="#000" font-family="Helvetica,sans-Serif" font-size="14" text-anchor="start">VARCHAR(255) NOT NULL</text><text x="11.5" y="-406.8" fill="#000" font-family="Helvetica,sans-Serif" font-size="14" text-anchor="start">description</text><text x="94.5" y="-406.8" fill="#000" font-family="Helvetica,sans-Serif" font-size="14" text-anchor="start">TEXT NOT NULL</text><text x="11.5" y="-387.8" fill="#000" font-family="Helvetica,sans-Serif" font-size="14" text-anchor="start">created_at</text><text x="94.5" y="-387.8" fill="#000" font-family="Helvetica,sans-Serif" font-size="14" text-anchor="start">TIMESTAMP NOT NULL</text><text x="11.5" y="-368.8" fill="#000" font-family="Helvetica,sans-Serif" font-size="14" text-anchor="start">updated_at</text><text x="94.5" y="-368.8" fill="#000" font-family="Helvetica,sans-Serif" font-size="14" text-anchor="start">TIMESTAMP NOT NULL</text><polygon fill="none" stroke="#888" points="8 -362 8 -478 275 -478 275 -362 8 -362"/></g><g id="edge4" class="edge"><title>constraints_a03c1a95:w-&gt;segments_3eefbbff:e</title><path fill="none" stroke="#000" d="M311.304,-510.8757C298.1793,-495.45 303.636,-459.6457 284.3879,-450.9356"/><polygon fill="#000" stroke="#000" points="318.802 -514.075 326.234 -522.139 323.401 -516.038 328 -518 328 -518 328 -518 323.401 -516.038 329.766 -513.861 318.802 -514.075 318.802 -514.075"/><ellipse cx="315.123" cy="-512.505" fill="none" stroke="#000" rx="4" ry="4"/><polygon fill="#000" stroke="#000" points="274.521 -454.099 276.442 -444.285 278.405 -444.67 276.483 -454.483 274.521 -454.099"/><polyline fill="none" stroke="#000" points="274.5 -449 279.407 -449.961"/><polygon fill="#000" stroke="#000" points="279.428 -455.06 281.349 -445.246 283.312 -445.63 281.39 -455.444 279.428 -455.06"/><polyline fill="none" stroke="#000" points="279.407 -449.961 284.314 -450.921"/></g><g id="node2" class="node"><title>distributions_9741f6ce</title><polygon fill="#f2e9ce" stroke="transparent" points="658 -295 658 -314 750 -314 750 -295 658 -295"/><text x="660" y="-301.8" fill="#000" font-family="Helvetica,sans-Serif" font-size="14" font-style="italic" font-weight="bold" text-anchor="start">distributions</text><polygon fill="#f2e9ce" stroke="transparent" points="750 -295 750 -314 932 -314 932 -295 750 -295"/><text x="892" y="-300.8" fill="#000" font-family="Helvetica,sans-Serif" font-size="14" text-anchor="start">[table]</text><text x="660" y="-282.8" fill="#000" font-family="Helvetica,sans-Serif" font-size="14" font-style="italic" font-weight="bold" text-anchor="start">id</text><text x="752" y="-281.8" fill="#000" font-family="Helvetica,sans-Serif" font-size="14" text-anchor="start">VARCHAR(255) NOT NULL</text><text x="660" y="-262.8" fill="#000" font-family="Helvetica,sans-Serif" font-size="14" text-anchor="start">rule_id</text><text x="752" y="-262.8" fill="#000" font-family="Helvetica,sans-Serif" font-size="14" text-anchor="start">VARCHAR(255) NOT NULL</text><text x="660" y="-243.8" fill="#000" font-family="Helvetica,sans-Serif" font-size="14" text-anchor="start">variant_id</text><text x="752" y="-243.8" fill="#000" font-family="Helvetica,sans-Serif" font-size="14" text-anchor="start">VARCHAR(255) NOT NULL</text><text x="660" y="-224.8" fill="#000" font-family="Helvetica,sans-Serif" font-size="14" text-anchor="start">rollout</text><text x="752" y="-224.8" fill="#000" font-family="Helvetica,sans-Serif" font-size="14" text-anchor="start">FLOAT NOT NULL</text><text x="660" y="-205.8" fill="#000" font-family="Helvetica,sans-Serif" font-size="14" text-anchor="start">created_at</text><text x="752" y="-205.8" fill="#000" font-family="Helvetica,sans-Serif" font-size="14" text-anchor="start">TIMESTAMP NOT NULL</text><text x="660" y="-186.8" fill="#000" font-family="Helvetica,sans-Serif" font-size="14" text-anchor="start">updated_at</text><text x="752" y="-186.8" fill="#000" font-family="Helvetica,sans-Serif" font-size="14" text-anchor="start">TIMESTAMP NOT NULL</text><polygon fill="none" stroke="#888" points="657 -180.5 657 -315.5 933 -315.5 933 -180.5 657 -180.5"/></g><g id="node4" class="node"><title>rules_67dbd56</title><polygon fill="#f2e9ce" stroke="transparent" points="328 -347 328 -366 422 -366 422 -347 328 -347"/><text x="330" y="-353.8" fill="#000" font-family="Helvetica,sans-Serif" font-size="14" font-style="italic" font-weight="bold" text-anchor="start">rules</text><polygon fill="#f2e9ce" stroke="transparent" points="422 -347 422 -366 604 -366 604 -347 422 -347"/><text x="564" y="-352.8" fill="#000" font-family="Helvetica,sans-Serif" font-size="14" text-anchor="start">[table]</text><text x="330" y="-334.8" fill="#000" font-family="Helvetica,sans-Serif" font-size="14" font-style="italic" font-weight="bold" text-anchor="start">id</text><text x="424" y="-333.8" fill="#000" font-family="Helvetica,sans-Serif" font-size="14" text-anchor="start">VARCHAR(255) NOT NULL</text><text x="330" y="-314.8" fill="#000" font-family="Helvetica,sans-Serif" font-size="14" text-anchor="start">flag_key</text><text x="424" y="-314.8" fill="#000" font-family="Helvetica,sans-Serif" font-size="14" text-anchor="start">VARCHAR(255) NOT NULL</text><text x="330" y="-295.8" fill="#000" font-family="Helvetica,sans-Serif" font-size="14" text-anchor="start">segment_key</text><text x="424" y="-295.8" fill="#000" font-family="Helvetica,sans-Serif" font-size="14" text-anchor="start">VARCHAR(255) NOT NULL</text><text x="330" y="-276.8" fill="#000" font-family="Helvetica,sans-Serif" font-size="14" text-anchor="start">rank</text><text x="424" y="-276.8" fill="#000" font-family="Helvetica,sans-Serif" font-size="14" text-anchor="start">INTEGER NOT NULL</text><text x="330" y="-257.8" fill="#000" font-family="Helvetica,sans-Serif" font-size="14" text-anchor="start">created_at</text><text x="424" y="-257.8" fill="#000" font-family="Helvetica,sans-Serif" font-size="14" text-anchor="start">TIMESTAMP NOT NULL</text><text x="330" y="-238.8" fill="#000" font-family="Helvetica,sans-Serif" font-size="14" text-anchor="start">updated_at</text><text x="424" y="-238.8" fill="#000" font-family="Helvetica,sans-Serif" font-size="14" text-anchor="start">TIMESTAMP NOT NULL</text><polygon fill="none" stroke="#888" points="327 -232.5 327 -367.5 605 -367.5 605 -232.5 327 -232.5"/></g><g id="edge3" class="edge"><title>distributions_9741f6ce:w-&gt;rules_67dbd56:e</title><path fill="none" stroke="#000" d="M641.234,-274.0673C627.6309,-289.8513 633.8207,-327.2765 613.8599,-336.1089"/><polygon fill="#000" stroke="#000" points="648.785 -270.884 659.748 -271.147 653.393 -268.942 658 -267 658 -267 658 -267 653.393 -268.942 656.252 -262.853 648.785 -270.884 648.785 -270.884"/><ellipse cx="645.099" cy="-272.438" fill="none" stroke="#000" rx="4" ry="4"/><polygon fill="#000" stroke="#000" points="605.924 -342.722 604.04 -332.901 606.005 -332.524 607.888 -342.345 605.924 -342.722"/><polyline fill="none" stroke="#000" points="604 -338 608.91 -337.058"/><polygon fill="#000" stroke="#000" points="610.834 -341.78 608.951 -331.959 610.915 -331.582 612.799 -341.404 610.834 -341.78"/><polyline fill="none" stroke="#000" points="608.91 -337.058 613.821 -336.116"/></g><g id="node5" class="node"><title>variants_b58574ed</title><polygon fill="#f2e9ce" stroke="transparent" points="334 -186 334 -205 417 -205 417 -186 334 -186"/><text x="336" y="-192.8" fill="#000" font-family="Helvetica,sans-Serif" font-size="14" font-style="italic" font-weight="bold" text-anchor="start">variants</text><polygon fill="#f2e9ce" stroke="transparent" points="417 -186 417 -205 599 -205 599 -186 417 -186"/><text x="559" y="-191.8" fill="#000" font-family="Helvetica,sans-Serif" font-size="14" text-anchor="start">[table]</text><text x="336" y="-173.8" fill="#000" font-family="Helvetica,sans-Serif" font-size="14" font-style="italic" font-weight="bold" text-anchor="start">id</text><text x="419" y="-172.8" fill="#000" font-family="Helvetica,sans-Serif" font-size="14" text-anchor="start">VARCHAR(255) NOT NULL</text><text x="336" y="-153.8" fill="#000" font-family="Helvetica,sans-Serif" font-size="14" text-anchor="start">flag_key</text><text x="419" y="-153.8" fill="#000" font-family="Helvetica,sans-Serif" font-size="14" text-anchor="start">VARCHAR(255) NOT NULL</text><text x="336" y="-134.8" fill="#000" font-family="Helvetica,sans-Serif" font-size="14" text-anchor="start">key</text><text x="419" y="-134.8" fill="#000" font-family="Helvetica,sans-Serif" font-size="14" text-anchor="start">VARCHAR(255) NOT NULL</text><text x="336" y="-115.8" fill="#000" font-family="Helvetica,sans-Serif" font-size="14" text-anchor="start">name</text><text x="419" y="-115.8" fill="#000" font-family="Helvetica,sans-Serif" font-size="14" text-anchor="start">VARCHAR(255) NOT NULL</text><text x="336" y="-96.8" fill="#000" font-family="Helvetica,sans-Serif" font-size="14" text-anchor="start">description</text><text x="419" y="-96.8" fill="#000" font-family="Helvetica,sans-Serif" font-size="14" text-anchor="start">TEXT NOT NULL</text><text x="336" y="-77.8" fill="#000" font-family="Helvetica,sans-Serif" font-size="14" text-anchor="start">created_at</text><text x="419" y="-77.8" fill="#000" font-family="Helvetica,sans-Serif" font-size="14" text-anchor="start">TIMESTAMP NOT NULL</text><text x="336" y="-58.8" fill="#000" font-family="Helvetica,sans-Serif" font-size="14" text-anchor="start">updated_at</text><text x="419" y="-58.8" fill="#000" font-family="Helvetica,sans-Serif" font-size="14" text-anchor="start">TIMESTAMP NOT NULL</text><polygon fill="none" stroke="#888" points="332.5 -52 332.5 -206 599.5 -206 599.5 -52 332.5 -52"/></g><g id="edge6" class="edge"><title>distributions_9741f6ce:w-&gt;variants_b58574ed:e</title><path fill="none" stroke="#000" d="M640.9329,-240.54C625.5305,-225.2417 630.407,-187.4341 609.016,-178.783"/><polygon fill="#000" stroke="#000" points="648.648 -243.46 656.407 -251.209 653.324 -245.23 658 -247 658 -247 658 -247 653.324 -245.23 659.593 -242.791 648.648 -243.46 648.648 -243.46"/><ellipse cx="644.907" cy="-242.044" fill="none" stroke="#000" rx="4" ry="4"/><polygon fill="#000" stroke="#000" points="599.108 -182.098 600.861 -172.253 602.83 -172.603 601.077 -182.448 599.108 -182.098"/><polyline fill="none" stroke="#000" points="599 -177 603.923 -177.876"/><polygon fill="#000" stroke="#000" points="604.031 -182.974 605.784 -173.129 607.753 -173.48 606 -183.325 604.031 -182.974"/><polyline fill="none" stroke="#000" points="603.923 -177.876 608.845 -178.753"/></g><g id="node3" class="node"><title>flags_5d062e6</title><polygon fill="#f2e9ce" stroke="transparent" points="9.5 -247 9.5 -266 92.5 -266 92.5 -247 9.5 -247"/><text x="11.5" y="-253.8" fill="#000" font-family="Helvetica,sans-Serif" font-size="14" font-style="italic" font-weight="bold" text-anchor="start">flags</text><polygon fill="#f2e9ce" stroke="transparent" points="92.5 -247 92.5 -266 274.5 -266 274.5 -247 92.5 -247"/><text x="234.5" y="-252.8" fill="#000" font-family="Helvetica,sans-Serif" font-size="14" text-anchor="start">[table]</text><text x="11.5" y="-234.8" fill="#000" font-family="Helvetica,sans-Serif" font-size="14" font-style="italic" font-weight="bold" text-anchor="start">key</text><text x="94.5" y="-233.8" fill="#000" font-family="Helvetica,sans-Serif" font-size="14" text-anchor="start">VARCHAR(255) NOT NULL</text><text x="11.5" y="-214.8" fill="#000" font-family="Helvetica,sans-Serif" font-size="14" text-anchor="start">name</text><text x="94.5" y="-214.8" fill="#000" font-family="Helvetica,sans-Serif" font-size="14" text-anchor="start">VARCHAR(255) NOT NULL</text><text x="11.5" y="-195.8" fill="#000" font-family="Helvetica,sans-Serif" font-size="14" text-anchor="start">description</text><text x="94.5" y="-195.8" fill="#000" font-family="Helvetica,sans-Serif" font-size="14" text-anchor="start">TEXT NOT NULL</text><text x="11.5" y="-176.8" fill="#000" font-family="Helvetica,sans-Serif" font-size="14" text-anchor="start">enabled</text><text x="94.5" y="-176.8" fill="#000" font-family="Helvetica,sans-Serif" font-size="14" text-anchor="start">BOOLEAN NOT NULL</text><text x="11.5" y="-157.8" fill="#000" font-family="Helvetica,sans-Serif" font-size="14" text-anchor="start">created_at</text><text x="94.5" y="-157.8" fill="#000" font-family="Helvetica,sans-Serif" font-size="14" text-anchor="start">TIMESTAMP NOT NULL</text><text x="11.5" y="-138.8" fill="#000" font-family="Helvetica,sans-Serif" font-size="14" text-anchor="start">updated_at</text><text x="94.5" y="-138.8" fill="#000" font-family="Helvetica,sans-Serif" font-size="14" text-anchor="start">TIMESTAMP NOT NULL</text><polygon fill="none" stroke="#888" points="8 -132.5 8 -267.5 275 -267.5 275 -132.5 8 -132.5"/></g><g id="edge1" class="edge"><title>rules_67dbd56:w-&gt;flags_5d062e6:e</title><path fill="none" stroke="#000" d="M311.2167,-312.094C296.0502,-294.6484 306.8477,-249.5055 284.3887,-239.8391"/><polygon fill="#000" stroke="#000" points="318.752 -315.195 326.288 -323.161 323.376 -317.097 328 -319 328 -319 328 -319 323.376 -317.097 329.712 -314.839 318.752 -315.195 318.752 -315.195"/><ellipse cx="315.053" cy="-313.673" fill="none" stroke="#000" rx="4" ry="4"/><polygon fill="#000" stroke="#000" points="274.569 -243.099 276.397 -233.267 278.364 -233.633 276.535 -243.464 274.569 -243.099"/><polyline fill="none" stroke="#000" points="274.5 -238 279.416 -238.914"/><polygon fill="#000" stroke="#000" points="279.485 -244.013 281.313 -234.181 283.279 -234.547 281.451 -244.379 279.485 -244.013"/><polyline fill="none" stroke="#000" points="279.416 -238.914 284.331 -239.829"/></g><g id="edge5" class="edge"><title>rules_67dbd56:w-&gt;segments_3eefbbff:e</title><path fill="none" stroke="#000" d="M310.5327,-303.6537C276.2384,-327.4391 330.4585,-434.8126 284.6532,-447.7276"/><polygon fill="#000" stroke="#000" points="318.337 -301.575 329.159 -303.348 323.168 -300.287 328 -299 328 -299 328 -299 323.168 -300.287 326.841 -294.652 318.337 -301.575 318.337 -301.575"/><ellipse cx="314.472" cy="-302.604" fill="none" stroke="#000" rx="4" ry="4"/><polygon fill="#000" stroke="#000" points="276.114 -453.837 274.87 -443.914 276.855 -443.666 278.099 -453.588 276.114 -453.837"/><polyline fill="none" stroke="#000" points="274.5 -449 279.461 -448.378"/><polygon fill="#000" stroke="#000" points="281.075 -453.215 279.832 -443.293 281.816 -443.044 283.06 -452.966 281.075 -453.215"/><polyline fill="none" stroke="#000" points="279.461 -448.378 284.422 -447.757"/></g><g id="edge2" class="edge"><title>variants_b58574ed:w-&gt;flags_5d062e6:e</title><path fill="none" stroke="#000" d="M316.9142,-164.2775C299.5746,-181.1477 308.6806,-226.8278 284.5279,-236.2758"/><polygon fill="#000" stroke="#000" points="324.613 -161.449 335.552 -162.224 329.307 -159.724 334 -158 334 -158 334 -158 329.307 -159.724 332.448 -153.776 324.613 -161.449 324.613 -161.449"/><ellipse cx="320.859" cy="-162.828" fill="none" stroke="#000" rx="4" ry="4"/><polygon fill="#000" stroke="#000" points="276.333 -242.758 274.638 -232.903 276.609 -232.564 278.304 -242.419 276.333 -242.758"/><polyline fill="none" stroke="#000" points="274.5 -238 279.428 -237.153"/><polygon fill="#000" stroke="#000" points="281.261 -241.911 279.566 -232.055 281.537 -231.717 283.232 -241.572 281.261 -241.911"/><polyline fill="none" stroke="#000" points="279.428 -237.153 284.355 -236.305"/></g><g id="node6" class="node"><title>schema_migrations_a7e3bc22</title><polygon fill="#f2e9ce" stroke="transparent" points="697 -380 697 -399 838 -399 838 -380 697 -380"/><text x="699" y="-386.8" fill="#000" font-family="Helvetica,sans-Serif" font-size="14" font-style="italic" font-weight="bold" text-anchor="start">schema_migrations</text><polygon fill="#f2e9ce" stroke="transparent" points="838 -380 838 -399 893 -399 893 -380 838 -380"/><text x="853" y="-385.8" fill="#000" font-family="Helvetica,sans-Serif" font-size="14" text-anchor="start">[table]</text><text x="699" y="-366.8" fill="#000" font-family="Helvetica,sans-Serif" font-size="14" text-anchor="start">version</text><text x="840" y="-366.8" fill="#000" font-family="Helvetica,sans-Serif" font-size="14" text-anchor="start">UINT64</text><text x="699" y="-347.8" fill="#000" font-family="Helvetica,sans-Serif" font-size="14" text-anchor="start">dirty</text><text x="840" y="-347.8" fill="#000" font-family="Helvetica,sans-Serif" font-size="14" text-anchor="start">BOOL</text><polygon fill="none" stroke="#888" points="696 -341.5 696 -400.5 894 -400.5 894 -341.5 696 -341.5"/></g></g></svg>