<svg xmlns="http://www.w3.org/2000/svg" width="120" height="60" viewBox="-4.649 -0.667 120 60" overflow="visible"><path d="M55.35 4.602c-9.23 0-16.713 7.482-16.713 16.713S46.12 38.028 55.35 38.028s16.713-7.483 16.713-16.713S64.58 4.602 55.35 4.602zm0 31.28c-2.626 0-4.755-1.754-4.755-3.918h9.51c0 2.163-2.13 3.918-4.755 3.918zm7.854-5.215h-15.71v-2.85h15.7v2.85zm-.056-4.315H47.54l-.155-.18c-1.608-1.953-1.987-2.972-2.354-4.01-.006-.034 1.95.4 3.337.712a42.19 42.19 0 0 0 1.757.355c-1.002-1.174-1.597-2.667-1.597-4.193 0-3.35 2.57-6.278 1.642-8.644.902.073 1.867 1.904 1.932 4.767.96-1.325 1.36-3.746 1.36-5.23 0-1.537 1.013-3.322 2.025-3.383-.903 1.488.234 2.764 1.244 5.928.38 1.19.33 3.19.623 4.457.097-2.635.55-6.48 2.222-7.806-.737 1.67.11 3.763.688 4.768.934 1.622 1.5 2.85 1.5 5.176 0 1.56-.575 3.026-1.546 4.173 1.104-.207 1.866-.394 1.866-.394l3.584-.7c0 0-.52 2.14-2.522 4.204z" fill="#da4e31"/><path d="M9.643 41.524c.778-.13 1.797-.24 3.093-.24 1.593 0 2.76.37 3.5 1.037.667.593 1.093 1.5 1.093 2.612 0 1.13-.333 2.02-.963 2.667-.87.908-2.24 1.37-3.816 1.37-.482 0-.926-.02-1.297-.1v5h-1.6zm1.6 6.02c.352.093.797.13 1.334.13 1.945 0 3.13-.963 3.13-2.65 0-1.667-1.185-2.463-2.945-2.463-.704 0-1.24.056-1.52.13zm7.893.148l-.074-2.797h1.426l.074 1.778h.056c.408-1.204 1.408-1.964 2.5-1.964.167 0 .296.02.445.037v1.537c-.167-.037-.333-.037-.556-.037-1.148 0-1.963.852-2.186 2.075a4.88 4.88 0 0 0-.056.76v4.78h-1.63v-6.168zm13.994 1.6c0 3.316-2.315 4.76-4.464 4.76-2.408 0-4.297-1.778-4.297-4.612 0-2.982 1.982-4.742 4.446-4.742 2.575 0 4.316 1.87 4.316 4.594zm-7.094.093c0 1.964 1.1 3.445 2.704 3.445 1.556 0 2.723-1.463 2.723-3.482 0-1.52-.76-3.427-2.686-3.427-1.908 0-2.74 1.778-2.74 3.464zm9.152-2.076l-.074-2.426h1.426l.074 1.463h.056c.5-.852 1.334-1.65 2.834-1.65 1.204 0 2.13.74 2.52 1.797h.037a3.54 3.54 0 0 1 1.019-1.167c.537-.407 1.1-.63 1.963-.63 1.204 0 2.964.778 2.964 3.9v5.26h-1.593V48.8c0-1.74-.65-2.76-1.945-2.76-.945 0-1.65.685-1.945 1.463a2.79 2.79 0 0 0-.13.815v5.538H40.8v-5.37c0-1.426-.63-2.445-1.87-2.445-1 0-1.76.815-2.02 1.63-.093.222-.13.52-.13.797v5.4h-1.593v-6.54zm16.357 2.355c.037 2.204 1.426 3.112 3.075 3.112 1.167 0 1.9-.204 2.482-.463l.296 1.167c-.574.26-1.574.574-3 .574-2.76 0-4.408-1.834-4.408-4.538s1.593-4.816 4.205-4.816c2.945 0 3.705 2.556 3.705 4.205a4.07 4.07 0 0 1-.056.76zm4.78-1.167c.02-1.02-.426-2.63-2.26-2.63-1.667 0-2.37 1.5-2.5 2.63zm5.555-5.76v2.15h2.334v1.24H61.88v4.835c0 1.1.315 1.74 1.223 1.74.445 0 .704-.037.945-.1l.074 1.24c-.315.1-.815.222-1.445.222-.76 0-1.37-.26-1.76-.685-.445-.5-.63-1.297-.63-2.353v-4.9H58.9v-1.24h1.4V43.23zm4.17-2.047h1.63v5.613h.037a3.07 3.07 0 0 1 1.167-1.167 3.34 3.34 0 0 1 1.667-.445c1.204 0 3.13.74 3.13 3.816v5.334h-1.63V48.7c0-1.445-.537-2.65-2.075-2.65-1.056 0-1.87.74-2.186 1.6-.092.24-.1.482-.1.778v5.4h-1.63V40.7zm11.188 8.964c.037 2.204 1.426 3.112 3.075 3.112 1.167 0 1.9-.204 2.482-.463l.296 1.167c-.574.26-1.574.574-3 .574-2.76 0-4.4-1.834-4.4-4.538s1.593-4.816 4.205-4.816c2.945 0 3.705 2.556 3.705 4.205a3.96 3.96 0 0 1-.056.76zm4.78-1.167c.02-1.02-.426-2.63-2.26-2.63-1.667 0-2.37 1.5-2.5 2.63zm11.094 2.91l.074 2.464H91.74l-.093-1.463H91.6c-.408.722-1.37 1.667-2.964 1.667-1.408 0-3.093-.797-3.093-3.927v-5.242h1.63v4.945c0 1.704.537 2.87 2 2.87 1.093 0 1.852-.76 2.15-1.5a2.24 2.24 0 0 0 .148-.834v-5.483h1.63zm2.483.814c.5.296 1.352.63 2.167.63 1.167 0 1.722-.574 1.722-1.334 0-.778-.463-1.185-1.65-1.63-1.63-.593-2.4-1.463-2.4-2.538 0-1.445 1.185-2.63 3.093-2.63.908 0 1.704.24 2.186.556l-.4 1.185c-.352-.222-1-.537-1.834-.537-.963 0-1.482.556-1.482 1.223 0 .74.518 1.074 1.685 1.537 1.537.574 2.352 1.352 2.352 2.686 0 1.593-1.24 2.704-3.334 2.704-.982 0-1.9-.26-2.52-.63z" fill="#e6522c"/></svg>