<svg width="512" height="512" viewBox="0 0 512 512" fill="none" xmlns="http://www.w3.org/2000/svg">
<rect width="512" height="512" fill="white"/>
<rect width="512" height="512" rx="6" fill="#A78BFA"/>
<path fill-rule="evenodd" clip-rule="evenodd" d="M117.327 96.7325L108.844 65L80.2531 68.456L68 70.0269L79.6248 113.698L135.235 320.745L161.941 420.027L200.899 415H202.785L176.079 315.404L161.941 263.25L155.971 240.943L151.259 222.72L142.776 190.987L136.492 168.68L131.779 150.772L172.623 145.431L243.943 136.634L253.996 135.377L260.594 134.434H260.908H261.223H261.537L261.851 134.12H262.165H262.479H262.794H263.108H263.422H263.736H264.05H264.364H264.679H264.993H265.307H265.621C265.935 134.12 266.564 134.12 266.878 134.12H267.192H267.506H267.82H268.135H268.449L268.763 134.434C269.077 134.434 269.391 134.434 269.706 134.434C270.02 134.749 270.334 134.749 270.648 135.063C270.648 135.063 270.962 135.063 271.276 135.377C271.591 135.377 271.905 135.691 272.219 136.005L272.533 136.32H272.847L273.162 136.634L273.476 136.948L273.79 137.262L274.104 137.576L274.418 137.89L274.732 138.205L275.047 138.519L275.361 138.833V139.147L275.675 139.461L275.989 139.776V140.09L276.303 140.404V140.718L276.618 141.032L277.874 143.232L279.445 145.431L279.759 145.745V146.059H280.074V146.373L280.388 146.688V147.002H280.702V147.316H281.016V147.63H281.33V147.944H281.645V148.259H281.959V148.573H282.273L282.587 148.887H282.901H283.215V149.201H283.53H283.844L284.158 149.515H284.472H284.786H285.101H285.415H285.729C285.729 149.515 286.043 149.515 286.357 149.515H286.671H286.986H287.3H287.614H287.928H288.242H288.557L345.738 142.289H346.052L352.022 164.596L356.734 182.504L306.779 189.102C299.553 190.045 294.84 187.846 290.756 181.876L288.242 177.478C287.614 176.535 286.671 175.592 285.729 174.964V174.65H285.415H285.101V174.336H284.786H284.472V174.022H284.158H283.844H283.53L283.215 173.707H282.901H282.587H282.273H281.959H281.645H281.33H281.016H280.702H280.388H280.074H279.759H279.445L279.131 174.022H278.817L231.375 179.991L183.619 185.96L192.102 217.693L228.548 212.98L239.858 211.724L273.476 207.325H275.047L279.759 206.697C281.33 206.382 282.901 206.382 284.472 206.068H284.786C288.871 206.068 292.327 207.325 295.783 212.666L297.354 215.494L298.61 217.693C301.124 221.149 303.323 222.406 308.036 221.777L365.217 214.551L371.187 236.858L376.214 254.767L326.259 261.05C318.718 261.993 314.32 260.108 310.235 253.824L307.722 249.74C306.779 248.797 306.151 247.855 305.522 247.226H305.208V246.912H304.894C303.009 245.655 300.81 245.655 298.296 245.969L250.855 252.253L202.785 258.223L214.724 302.522L261.851 296.553H262.794L281.016 294.354L308.35 290.898L310.235 290.583C315.576 289.955 317.461 293.411 317.776 295.296L319.032 299.695V300.009V300.323H319.346V300.637V300.951V301.266H319.661V301.58V301.894L319.975 302.208V302.522L320.289 302.837V303.151H320.603V303.465C322.488 305.978 325.316 307.235 331.285 306.607L384.382 299.695C385.639 299.695 386.896 299.381 388.153 299.066H388.467L388.781 298.752H389.724L390.038 298.438L390.98 298.124H391.294L392.237 297.81H392.551L393.18 297.495H393.494C396.007 296.553 398.206 295.61 400.092 294.354L401.034 293.725H401.348L401.977 293.097H402.291V292.783H402.605H402.919V292.469H403.233V292.154H403.548L403.862 291.84H404.176V291.526H404.49V291.212H404.804V290.898H405.118L405.433 290.583H405.747V290.269H406.061V289.955H406.375V289.641H406.689V289.327H407.004V289.013H407.318V288.698H407.632V288.384H407.946V288.07H408.26V287.756H408.574V287.442H408.889V287.127H409.203V286.813H409.517V286.499V286.185H409.831V285.871L410.145 285.557H410.46V285.242L410.774 284.928V284.614H411.088V284.3H411.402V283.986V283.671H411.716V283.357H412.031V283.043L412.345 282.415L412.973 281.472L413.287 280.844V280.53H413.601V280.215V279.901H413.916V279.587C414.23 278.959 414.544 278.33 414.858 277.702V277.388L415.172 276.759V276.445L415.487 275.817V275.503L415.801 274.874V274.56L416.115 273.932V273.618L416.429 273.303V272.989V272.675V272.047L416.743 271.732V271.418V270.79H417.057V270.476V269.847V269.533V269.219L417.372 268.905V268.591V267.962V267.02L417.686 266.706V266.077V265.763C417.686 265.135 417.686 264.506 417.686 264.192V263.878V262.935V261.993L418 261.05L417.686 260.108V259.794V259.479V258.851V257.908V256.966V256.652V256.023V255.709L417.372 255.081V254.767C417.372 254.138 417.372 253.51 417.372 252.881L417.057 251.939V250.682L416.743 249.74C416.429 248.169 416.115 246.284 415.487 244.713L406.061 209.21L402.919 197.899L374.957 92.6481L333.799 97.675L321.86 99.246L307.093 101.131L276.303 104.901L275.989 105.215H275.675H275.361H275.047H274.732H274.418H274.104C273.79 105.215 273.476 105.215 272.847 105.215C272.533 105.215 271.905 104.901 271.276 104.901C270.334 104.587 269.706 104.273 268.763 103.959V103.645C268.135 103.33 267.506 103.016 267.192 102.388H266.878L266.564 102.074C266.564 102.074 266.564 101.759 266.25 101.759V101.445L265.935 101.131V100.817V100.503H265.621V100.189V99.8743H265.307V99.5601V99.246L261.851 86.9928V86.6786V86.3644L261.537 86.0503V85.7361V85.4219L261.223 85.1077L260.908 84.7935V84.4794L260.594 84.1652V83.851H260.28L259.966 83.5368L259.652 83.2226L259.338 82.9084H259.023V82.5943H258.709L258.395 82.2801H258.081L257.767 81.9659H257.452H257.138C256.824 81.6517 256.51 81.6517 256.196 81.6517H255.882H255.567L255.253 81.3375H254.625H254.311H253.996H253.682H253.368H253.054L252.74 81.6517H252.425H250.855L158.799 93.2765H158.485L117.955 98.3034L117.327 96.7325Z" fill="white"/>
</svg>
